<svg width="640" height="640" viewBox="0 0 640 640" fill="none" xmlns="http://www.w3.org/2000/svg">
<path d="M0 320C0.02 496.72 143.28 639.98 320.02 640C496.74 639.98 640 496.72 640 320C640 143.25 496.74 0.02 320.02 0C143.28 0.02 0.02 143.25 0 320ZM320.02 606.3C240.89 606.3 169.41 574.29 117.55 522.45C65.71 470.59 33.7 399.11 33.7 320C33.7 240.89 65.71 169.43 117.55 117.55C169.41 65.71 240.89 33.7 320.02 33.66C399.11 33.7 470.57 65.71 522.45 117.55C574.29 169.43 606.3 240.89 606.3 320C606.3 399.11 574.29 470.59 522.45 522.45C470.57 574.29 399.11 606.3 320.02 606.3ZM222.48 256.13C229.05 249.55 229.05 238.87 222.48 232.31C215.89 225.71 205.24 225.71 198.66 232.31C153.19 277.77 127.93 303.02 122.88 308.07C116.3 314.67 116.3 325.35 122.88 331.91C130.46 339.49 191.09 400.11 198.66 407.69C201.93 410.99 206.25 412.64 210.57 412.64C214.88 412.64 219.19 410.99 222.48 407.69C229.06 401.13 229.06 390.47 222.48 383.89C218.23 379.63 196.94 358.33 158.61 319.98C196.93 281.67 218.23 260.39 222.48 256.13ZM347.1 236.68C339.52 251.84 278.88 373.11 271.3 388.26C267.13 396.58 270.5 406.68 278.84 410.85C281.25 412.07 283.82 412.64 286.34 412.64C292.52 412.64 298.47 409.22 301.42 403.32C309 388.16 369.63 266.89 377.2 251.74C381.35 243.42 378 233.32 369.67 229.15C361.35 224.98 351.25 228.35 347.1 236.68ZM449.84 232.29C443.26 225.71 432.59 225.71 426.02 232.31C419.44 238.87 419.44 249.57 426.02 256.13C430.28 260.39 451.58 281.68 489.91 320C451.58 358.32 430.28 379.61 426.02 383.87C419.43 390.45 419.43 401.13 426.02 407.73C429.31 411.01 433.63 412.66 437.93 412.66C442.24 412.66 446.55 411.01 449.84 407.73C457.42 400.15 518.06 339.51 525.64 331.93C528.8 328.73 530.56 324.5 530.56 320C530.56 315.5 528.8 311.27 525.64 308.09C510.48 292.93 457.42 239.87 449.84 232.29Z" fill="#FFD300"/>
</svg>
