<svg width="400" height="417" viewBox="0 0 400 417" fill="none" xmlns="http://www.w3.org/2000/svg">
<rect x="4" y="197.424" width="140.369" height="178.337" transform="rotate(-32.3425 4 197.424)" fill="white"/>
<rect x="277.433" y="122" width="140.369" height="178.337" transform="rotate(32.3526 277.433 122)" fill="white"/>
<rect x="235.758" y="103" width="140.369" height="178.337" transform="rotate(15.8668 235.758 103)" fill="white"/>
<rect x="29" y="141.767" width="140.369" height="178.337" transform="rotate(-17.3104 29 141.767)" fill="white"/>
<path d="M201 168C213.4 120.8 195.833 71 185.5 52C179.5 45 163.2 32.5 146 38.5C128.8 44.5 119.5 82 117 100C115.833 119.833 114.6 166.5 119 194.5C123.4 222.5 167.167 249.167 188.5 259C187.5 248.333 188.6 215.2 201 168Z" fill="#FAAD81"/>
<path d="M192 136C192.167 123 189.9 91 179.5 67C180.333 64.1667 184.3 56.4 193.5 48C205 37.5 232.5 48 245 63C257.5 78 268.5 128.5 264.5 156.5C260.5 184.5 255.5 179.5 239.5 216C226.7 245.2 197.5 252.5 184.5 252.5L183 249.5C181 247.5 177.1 240 177.5 226C178 208.5 182.5 194.5 187 174.5C190.6 158.5 191.833 142.167 192 136Z" fill="#F0A57B"/>
<path fill-rule="evenodd" clip-rule="evenodd" d="M224.341 9.91999C221.237 10.817 218.364 11.953 214.55 13.789C212.928 14.57 211.237 15.341 210.792 15.502C210.347 15.662 209.983 15.875 209.983 15.973C209.983 16.072 209.847 16.153 209.681 16.153C209.515 16.153 209.086 16.294 208.728 16.468C203.794 18.853 199.165 20.376 195.698 20.753C194.757 20.856 194.269 21.015 194.179 21.251C193.851 22.106 188.592 20.442 186.414 18.793C184.945 17.682 183.12 17.868 179.361 19.514C179.003 19.671 172.538 21.993 169.265 23.141C168.895 23.271 168.39 23.452 168.144 23.545C167.897 23.637 167.342 23.841 166.91 23.997C166.474 24.154 164.28 24.359 161.974 24.457C156.91 24.674 156.481 24.812 153.786 27.103C152.675 28.047 151.525 29.023 151.229 29.272C150.933 29.521 150.378 30.012 149.995 30.362C148.579 31.658 148.554 31.665 146.025 31.427C143.128 31.155 143.044 31.073 143.2 28.66C143.32 26.784 143.21 26.569 142.629 27.552C142.14 28.38 138.003 33.891 137.165 34.832C136.805 35.235 136.108 36.067 135.614 36.68C132.708 40.292 125.096 47.319 123.216 48.127C121.263 48.966 121.381 48.803 119.9 52.72C118.889 55.393 118.36 57.201 117.996 59.226C116.943 65.08 116.857 65.367 115.704 66.877C113.974 69.144 113.124 70.084 108.545 74.801C106.86 76.538 105.11 78.413 104.656 78.968C104.203 79.523 103.664 80.181 103.458 80.429C102.861 81.152 101.954 82.595 101.27 83.915C99.026 88.243 99.932 89.495 104.2 87.964C106.308 87.207 106.475 87.604 105.274 90.522C104.541 92.303 99.987 99.159 98.941 100.056C98.869 100.118 98.461 100.623 98.033 101.178C97.605 101.733 97.1791 102.221 97.085 102.262C96.9921 102.303 96.9151 102.441 96.9151 102.567C96.9151 102.694 96.528 103.266 96.055 103.839C93.418 107.028 91.2111 111.273 92.1901 111.273C93.3441 111.273 94.842 109.92 96.837 107.073C99.562 103.184 100.699 102.805 99.639 106.139C99.271 107.297 98.449 109.91 97.812 111.946C97.175 113.982 96.35 116.556 95.978 117.667C95.245 119.855 95.2211 121.396 95.8851 123.612C96.0511 124.167 96.2961 125.025 96.4281 125.519C96.7801 126.825 98.153 131.418 99.044 134.268C101.228 141.251 102.299 145.702 102.299 147.792C102.3 149.243 102.083 149.36 100.532 148.749C98.85 148.086 98.71 148.124 98.71 149.238C98.71 150.53 99.535 154.688 100.058 156.029C100.154 156.276 100.514 157.386 100.857 158.497C101.457 160.438 102.644 163.47 103.779 165.963C104.076 166.614 104.319 167.276 104.319 167.432C104.319 167.589 104.405 167.813 104.512 167.93C105.447 168.963 108.543 178.561 109.031 181.941C109.165 182.866 109.322 183.85 109.381 184.128C109.457 184.491 109.383 184.633 109.115 184.633C108.774 184.633 104.353 182.445 104.094 182.149C103.145 181.061 103.135 181.743 104.07 183.76C105.294 186.399 105.53 186.561 108.608 186.869C111.529 187.161 111.401 187.092 112.283 188.867C112.954 190.219 112.958 190.222 113.965 190.235C115.63 190.256 116.089 191.16 116.99 196.186C117.3 197.914 117.654 199.882 117.776 200.561C117.899 201.239 118.159 202.703 118.354 203.814C118.549 204.924 118.845 206.54 119.011 207.403C119.177 208.267 119.481 209.933 119.685 211.105C119.89 212.277 120.154 213.75 120.273 214.378C120.668 216.474 123.493 220.841 125.173 221.953C126.283 222.687 126.827 222.817 128.949 222.853L130.679 222.883L130.601 225.651C130.515 228.728 130.925 230.754 132.517 235.109C134.914 241.669 137.679 244.444 142.446 245.076L144.35 245.328L145.762 248.46C146.824 250.816 147.354 251.728 147.9 252.142C149.916 253.667 151.12 255.518 153.023 260.011C154.851 264.328 156.849 266.119 160.555 266.765C161.958 267.009 162.908 266.988 167.947 266.602C169.755 266.464 170.683 266.65 172.976 267.613C173.494 267.83 178.952 269.826 182.948 271.258C185.331 272.113 184.745 272.266 191.202 269.097C194.344 267.555 197.043 266.293 197.2 266.293C197.437 266.293 205.954 269.087 207.082 269.535C207.585 269.735 208.293 269.027 212.457 264.154C213.613 262.801 214.968 261.233 215.468 260.671C216.43 259.587 217.898 257.903 220.436 254.966C225.777 248.788 226.543 248.318 228.289 250.14C229.567 251.473 229.704 251.493 230.715 250.481C231.44 249.757 232.045 248.636 234.41 243.634C234.905 242.586 235.6 241.223 235.952 240.606C236.304 239.989 237.004 238.727 237.506 237.801C238.008 236.876 238.87 235.311 239.422 234.324C239.974 233.337 240.858 231.722 241.387 230.735C241.915 229.748 242.654 228.385 243.028 227.706C243.402 227.027 243.928 226.068 244.197 225.575C245.036 224.037 248.678 217.393 250.1 214.807C251.389 212.462 251.49 212.341 252.129 212.394C253.072 212.47 253.804 211.247 256.528 205.048C257.871 201.991 257.992 201.685 257.992 201.338C257.992 201.158 258.093 201.01 258.216 201.01C258.34 201.01 258.441 200.848 258.441 200.651C258.441 200.454 258.584 199.974 258.759 199.585C258.934 199.196 259.599 197.465 260.236 195.738C260.873 194.01 261.483 192.395 261.59 192.148C261.697 191.901 262.217 190.387 262.744 188.783L263.703 185.867L263.718 179.921C263.735 173.438 263.888 172.539 265.27 170.856L265.806 170.203L266.91 170.912C268.374 171.852 268.337 171.864 269.733 169.994C270.401 169.1 271.312 168.021 271.758 167.598L272.568 166.828L274.534 167.102C275.615 167.252 276.763 167.431 277.084 167.499L277.667 167.622L277.826 164.518C277.913 162.81 278.077 160.404 278.191 159.17C278.304 157.936 278.447 156.321 278.51 155.58C279.139 148.104 280.49 140.581 281.631 138.208C282.338 136.736 282.629 136.647 283.99 137.484C285.637 138.497 285.644 138.493 286.819 135.67C287.397 134.282 288.338 132.155 288.91 130.944L289.95 128.741L290.689 128.879L291.428 129.018L291.303 128.054C290.345 120.623 289.637 116.533 289.195 115.872C289.112 115.749 288.911 115.254 288.747 114.773C287.998 112.572 286.518 110.75 285.19 110.395C284.479 110.205 284.346 109.855 281.946 101.851C281.816 101.419 281.633 100.864 281.538 100.617C281.443 100.37 281.194 99.512 280.984 98.71C280.774 97.908 280.525 97.151 280.43 97.027C280.336 96.904 280.199 96.5 280.126 96.13C280.053 95.76 279.927 95.118 279.845 94.705C279.667 93.81 279.402 93.709 283.455 96.08C286.585 97.911 286.921 98.187 287.883 99.707C288.277 100.331 288.654 100.892 288.72 100.953C288.785 101.015 289.289 101.722 289.838 102.524C290.388 103.326 291.189 104.487 291.619 105.104C292.048 105.721 293.161 107.336 294.09 108.693C295.02 110.05 295.863 111.262 295.963 111.385C296.063 111.509 296.29 111.812 296.467 112.058C297.486 113.479 296.268 108.877 294.847 105.933C293.118 102.354 288.243 95 286.489 93.326C286.424 93.264 285.869 92.608 285.254 91.868C284.13 90.513 280.617 86.79 279.476 85.744L278.863 85.182L279.42 84.666C280.162 83.979 280.131 83.218 279.289 81.44C278.598 79.979 278.224 79.573 272.06 73.605C269.683 71.304 269.84 70.236 272.583 70.037C273.914 69.941 273.951 69.922 273.815 69.381C273.372 67.617 270.483 62.651 268.873 60.887C267.762 59.67 262.611 54.099 258.306 49.459C251.865 42.515 251.711 42.344 251.711 42.132C251.711 42.033 252.342 41.94 253.113 41.926C253.884 41.911 254.919 41.883 255.412 41.862C255.906 41.841 257.168 41.8 258.216 41.77L260.123 41.715L257.977 39.646C256.797 38.508 254.887 36.719 253.733 35.67C252.579 34.621 251.52 33.65 251.381 33.512C251.241 33.373 249.971 32.574 248.558 31.736C242.097 27.904 240.073 26.036 240.05 23.885C240.034 22.411 236.916 22.196 230.637 23.236C226.148 23.98 226.127 23.974 227.602 22.353C227.73 22.213 228.174 21.621 228.589 21.039L229.343 19.98L228.805 19.532C228.509 19.285 228.207 19.081 228.134 19.076C228.06 19.072 227.707 18.817 227.348 18.508C226.99 18.2 226.622 17.948 226.531 17.948C226.44 17.947 226.187 17.801 225.97 17.623C225.753 17.444 225.344 17.116 225.062 16.894L224.55 16.489L225.342 13.909C225.778 12.49 226.233 11.037 226.352 10.679C226.711 9.60999 226.148 9.39699 224.341 9.91999ZM192.655 20.574C192.935 20.627 193.338 20.625 193.553 20.569C193.767 20.513 193.539 20.469 193.045 20.472C192.552 20.474 192.376 20.52 192.655 20.574ZM144.372 22.733C143.683 24.142 143.344 25.746 143.795 25.467C144.168 25.237 145.373 22.58 145.373 21.99C145.373 21.202 144.977 21.496 144.372 22.733ZM165.115 50.779C165.115 54.823 165.502 56.267 166.36 55.428C166.477 55.314 167.119 55.006 167.787 54.744C169.127 54.219 169.368 54.327 169.374 55.457C169.38 56.523 169.854 58.329 170.125 58.318C170.269 58.312 170.841 57.749 171.397 57.068C173.783 54.139 177.479 52.271 180.889 52.271H181.941L181.939 53.225C181.935 55.142 181.342 57.808 179.797 62.851C179.407 64.125 178.976 67.043 179.139 67.307C179.204 67.412 179.785 66.975 180.431 66.335C181.076 65.695 181.868 64.957 182.19 64.694C185.127 62.307 188.461 59.669 189.212 59.14C189.716 58.785 190.179 58.416 190.241 58.322C190.525 57.885 192.178 58.139 194.675 59.002C195.325 59.226 196.032 59.376 196.246 59.335C196.46 59.294 196.711 59.253 196.803 59.243C196.896 59.234 196.971 58.885 196.971 58.468C196.971 56.288 200.22 57.048 208.242 61.105C211.047 62.523 214.227 63.968 215.308 64.315C220.045 65.837 225.68 64.631 225.689 62.094C225.691 61.314 226.501 58.098 226.76 57.839C227.719 56.88 231.985 61.072 234.997 65.932C235.12 66.13 235.473 66.645 235.782 67.076C236.378 67.908 238.25 71.116 238.25 71.305C238.25 71.367 238.387 71.577 238.555 71.771C239.321 72.66 243.054 79.981 244.071 82.589C245.074 85.16 246.819 89.134 248.243 92.092C248.897 93.449 249.995 95.732 250.683 97.165C251.372 98.597 251.935 99.927 251.935 100.118C251.935 100.31 252.016 100.501 252.115 100.542C252.215 100.583 252.58 101.324 252.927 102.187C253.274 103.051 253.643 103.96 253.748 104.206C253.853 104.453 254.152 105.362 254.413 106.225C254.674 107.089 254.987 108.099 255.11 108.469C255.237 108.852 255.384 113.436 255.45 119.109C255.538 126.709 255.635 129.186 255.856 129.54C256.016 129.796 256.262 130.763 256.404 131.688C256.545 132.614 256.797 134.178 256.963 135.165C257.291 137.113 257.266 137.297 256.676 137.297C255.801 137.297 255.465 137.813 255.72 138.767C255.85 139.254 256.115 141.368 256.309 143.466C256.503 145.564 256.721 147.809 256.794 148.457C256.932 149.674 256.642 150.877 255.35 154.459L254.784 156.029L254.738 166.125C254.71 172.181 254.593 176.848 254.443 177.79C254.307 178.654 254.087 180.118 253.956 181.043C253.295 185.703 251.467 188.499 249.7 187.554C249.19 187.281 249.106 187.569 248.887 190.312L248.73 192.289L247.36 192.145L245.99 192L243.595 194.435C242.032 196.025 241.15 197.101 241.054 197.538C240.056 202.064 238.687 205.77 237.575 206.95C236.992 207.569 236.173 208.48 235.756 208.974C235.339 209.467 234.473 210.391 233.831 211.027C232.195 212.65 231.969 213.317 231.969 216.508C231.969 220.874 231.947 220.912 226.207 226.418C224.777 227.79 224.579 228.09 224.133 229.559C223.861 230.452 223.549 231.385 223.439 231.632C223.33 231.879 222.907 233.166 222.5 234.491C221.512 237.713 221.158 237.783 215.119 235.943C209.075 234.101 208.059 234.623 208.224 239.484L208.301 241.727L205.737 241.789C202.926 241.857 202.661 241.964 202.445 243.114C202.365 243.543 202.135 243.945 201.935 244.007C201.734 244.069 200.965 244.356 200.224 244.644C198.28 245.402 191.094 247.675 190.647 247.674C190.438 247.673 190.205 247.773 190.129 247.897C190.053 248.02 189.687 248.121 189.316 248.121C188.945 248.121 188.471 248.212 188.263 248.323C187.595 248.679 183.07 249.518 182.553 249.381C182.278 249.308 181.624 248.869 181.1 248.404C179.066 246.603 178.153 245.878 177.92 245.878C177.787 245.878 177.678 245.798 177.678 245.701C177.678 245.007 174.508 242.97 173.974 243.32C173.667 243.521 173.416 243.775 173.416 243.884C173.416 244.353 171.53 244.06 170.306 243.401C167.616 241.952 164.76 238.683 161.198 232.978C159.049 229.537 157.78 228.376 154.229 226.605C150.11 224.55 148.239 223.155 147.387 221.505C147.205 221.152 147.001 220.813 146.933 220.752C146.866 220.69 145.699 218.974 144.34 216.938C141.718 213.01 141.221 212.081 140.49 209.759C140.238 208.957 139.557 206.786 138.976 204.936C135.766 194.704 132.429 192.333 126.339 195.957C124.386 197.12 123.962 197.072 123.236 195.603C121.183 191.453 120.532 175.2 121.738 158.208C121.878 156.235 121.913 156.126 122.446 155.992L123.007 155.851L122.861 152.239C122.781 150.252 122.62 147.97 122.502 147.168C121.653 141.378 121.294 134.012 121.813 133.042C121.942 132.801 122.487 132.409 123.025 132.171C124.265 131.623 124.261 131.632 124.061 129.893C123.302 123.298 123.303 119.088 124.064 118.452C124.138 118.39 124.584 117.434 125.056 116.326C125.527 115.219 126.203 113.743 126.557 113.046C127.39 111.407 127.407 111.503 125.965 109.661C124.445 107.717 124.411 107.586 124.735 104.848C125.098 101.776 126.761 97.333 128.629 94.448C130.358 91.775 131.363 90.379 131.987 89.782L132.698 89.103L134.433 89.692C136.46 90.379 136.336 90.448 137.563 87.942C138.548 85.928 138.547 83.966 137.561 80.101C136.265 75.025 136.699 73.547 140.055 71.611C140.977 71.079 144.114 69.994 144.732 69.994C145.165 69.994 146.148 68.546 145.942 68.212C145.867 68.091 145.305 67.711 144.692 67.367C144.08 67.023 143.579 66.666 143.578 66.573C143.578 66.481 143.444 66.405 143.281 66.405C143.117 66.405 142.767 66.175 142.503 65.893L142.022 65.381L142.52 64.788C142.793 64.461 143.371 63.713 143.803 63.125C148.718 56.43 158.961 49.432 163.937 49.37L165.115 49.355V50.779ZM145.036 113.752C143.803 113.853 141.834 114.099 140.662 114.297C139.49 114.495 137.773 114.756 136.848 114.876C135.923 114.996 134.408 115.224 133.483 115.384L131.8 115.673L133.371 116.417C135.126 117.249 139.818 119.349 139.922 119.349C140.44 119.349 139.766 119.79 139.17 119.841C138.36 119.909 137.236 120.934 137.587 121.285C137.737 121.435 140.44 121.248 149.411 120.466C162.333 119.34 171.567 120.645 176.689 124.323C177.692 125.044 178.351 124.94 178.351 124.061C178.351 122.976 173.274 119.343 169.153 117.48C167.184 116.59 161.788 115.008 159.843 114.75C159.226 114.669 158.418 114.511 158.048 114.401C156.345 113.891 148.254 113.488 145.036 113.752ZM221.425 116.679C217.633 116.942 212.821 117.768 212.353 118.236C212.234 118.355 211.874 118.452 211.554 118.452C211.233 118.452 210.874 118.54 210.757 118.647C210.64 118.754 210.043 119.029 209.43 119.257C208.397 119.642 205.144 121.689 204.428 122.405C204.256 122.577 203.919 122.823 203.678 122.951C203.261 123.175 203.272 123.216 203.92 123.865C204.293 124.238 204.599 124.637 204.599 124.751C204.599 125.209 207.449 124.758 218.172 122.604C225.657 121.1 224.274 121.208 232.752 121.466C239.161 121.662 240.564 121.836 242.737 122.708C246.191 124.095 246.74 123.87 245.502 121.579C244.531 119.78 244.638 119.459 246.289 119.22C250.146 118.664 246.138 117.48 239.148 117.112C236.618 116.978 233.186 116.772 231.52 116.653C228.215 116.417 225.076 116.425 221.425 116.679ZM122.646 156.603C122.569 156.896 122.621 157.032 122.788 156.977C123.111 156.869 123.279 156.141 122.981 156.141C122.863 156.141 122.713 156.349 122.646 156.603ZM195.003 181.962C194.74 182.055 194.532 182.549 194.344 183.533C194.193 184.323 193.894 185.777 193.679 186.764C192.209 193.517 193.772 195.939 201.522 198.916C202.659 199.352 204.012 199.872 204.527 200.072C205.409 200.412 205.493 200.409 205.913 200.029C206.944 199.096 213.205 200.63 214.919 202.235C215.597 202.87 216.821 203.962 217.638 204.662C219.505 206.259 220.752 207.5 220.752 207.762C220.752 208.197 221.897 207.979 229.164 206.157C230.767 205.756 231.52 205.317 231.52 204.784C231.52 204.687 231.04 204.359 230.454 204.056C229.868 203.752 228.94 203.111 228.391 202.63L227.394 201.756L229.105 200.933C232.613 199.246 232.872 198.159 230.174 196.441C227.975 195.04 227.975 195.04 229.356 193.224C229.929 192.47 230.398 191.808 230.398 191.753C230.398 191.698 229.01 191.581 227.314 191.495C225.617 191.408 223.775 191.239 223.219 191.119C220.26 190.482 218.875 190.127 216.994 189.522C215.853 189.154 214.863 188.762 214.794 188.65C214.725 188.538 214.462 188.446 214.211 188.446C213.737 188.446 208.411 185.884 208.197 185.553C208.131 185.45 207.622 185.136 207.067 184.855C206.511 184.574 205.743 184.104 205.359 183.812C203.9 182.701 196.609 181.399 195.003 181.962ZM183.716 182.3C183.573 182.473 183.365 182.614 183.253 182.614C183.066 182.614 179.54 184.167 176.893 185.416C173.955 186.802 171.346 187.998 171.257 187.998C171.204 187.998 170.105 188.503 168.817 189.119C167.528 189.736 166.432 190.241 166.381 190.241C166.329 190.241 165.292 190.704 164.075 191.27C162.858 191.836 161.458 192.482 160.965 192.706C160.471 192.93 159.287 193.477 158.334 193.921C157.38 194.366 155.343 195.033 153.807 195.405C146.66 197.133 144.974 198.581 148.617 199.861C151.348 200.821 151.329 200.894 147.897 202.696C144.489 204.486 144.756 204.266 145.281 204.846C146.586 206.291 148.505 206.666 152.888 206.333L153.561 206.282L153.497 208.03C153.462 208.992 153.295 210.708 153.126 211.844C152.783 214.152 152.801 214.246 153.581 214.246C155.351 214.246 157.778 212.216 160.556 208.413C163.217 204.769 165.529 203.369 167.827 204.008C170.009 204.615 170.17 204.565 172.855 202.451C174.402 201.233 175.203 200.946 176.627 201.099C180.384 201.503 180.866 201.514 181.747 201.224C182.554 200.957 183.96 199.456 183.96 198.859C183.96 198.77 184.197 198.384 184.487 198.002C184.777 197.62 185.195 196.955 185.416 196.523C185.636 196.091 185.879 195.687 185.954 195.625C186.355 195.298 186.636 194.188 186.748 192.485C186.817 191.436 186.939 189.684 187.019 188.592C187.166 186.595 186.37 184.178 185.138 182.878C184.983 182.715 184.857 182.5 184.857 182.399C184.857 182.061 183.978 181.984 183.716 182.3ZM190.241 220.073C188.218 220.335 185.938 221.205 184.134 222.403L183.074 223.107L183.068 224.442C183.065 225.175 183.171 226.639 183.305 227.694C183.438 228.75 183.596 230.042 183.655 230.566C183.723 231.172 183.875 231.52 184.07 231.52C184.672 231.52 185.257 232.744 185.517 234.55C186.228 239.489 186.976 241.336 187.633 239.776C187.805 239.369 188.083 238.708 188.252 238.308L188.559 237.581L189.903 239.71C191.229 241.812 191.706 242.215 191.951 241.447C192.127 240.896 192.344 240.378 193.125 238.643C193.785 237.176 194.311 236.752 194.585 237.465C195.139 238.91 195.808 237.354 196.195 233.715C196.524 230.626 196.683 230.157 197.717 229.22C198.53 228.484 198.742 228.468 199.888 229.052C201.109 229.675 201.077 229.721 200.953 227.538C200.621 221.664 197.069 219.188 190.241 220.073ZM280.09 295.177C280.09 329.279 280.166 346.775 280.314 346.884C280.722 347.184 302.064 347.089 302.367 346.786C302.57 346.583 302.636 343.146 302.636 332.694C302.636 316.888 302.605 317.203 304.321 315.693C306.787 313.521 310.465 314.438 312.079 317.625C312.246 317.957 312.797 318.934 313.303 319.798C313.808 320.662 314.81 322.378 315.528 323.612C316.247 324.846 317.123 326.336 317.475 326.924C317.827 327.512 318.116 328.035 318.116 328.086C318.116 328.136 318.609 328.982 319.212 329.964C319.815 330.947 320.607 332.292 320.973 332.953C321.601 334.091 322.425 335.51 325.188 340.213C325.84 341.324 326.662 342.737 327.013 343.354C327.365 343.971 327.955 345 328.324 345.641C328.694 346.282 329.198 346.861 329.445 346.928C330.032 347.087 354.822 347.067 354.982 346.907C355.049 346.839 354.543 345.911 353.858 344.845C353.173 343.778 352.296 342.408 351.909 341.8C351.522 341.192 350.398 339.456 349.411 337.942C348.424 336.429 346.975 334.179 346.192 332.943C345.409 331.706 343.844 329.28 342.715 327.551C341.586 325.822 339.955 323.296 339.091 321.937C335.965 317.02 334.276 314.409 334.05 314.143C333.923 313.994 333.819 313.821 333.819 313.759C333.819 313.697 333.131 312.607 332.289 311.338C330.293 308.325 330.416 308.558 330.105 307.219C329.643 305.233 329.947 304.448 333.269 299.047C335.239 295.843 343.451 282.25 344.093 281.132C344.401 280.594 345.895 278.121 347.414 275.635L350.174 271.116L338.127 271.004C331.501 270.942 325.959 270.926 325.812 270.967C325.565 271.036 324.947 272.044 321.524 277.958C320.846 279.131 319.701 281.079 318.979 282.287C318.257 283.496 317.667 284.574 317.667 284.683C317.667 284.792 317.539 285.014 317.383 285.177C317.143 285.429 314.918 289.16 313.929 290.97C311.137 296.082 310.033 297.14 307.496 297.139C304.998 297.137 303.356 295.934 302.845 293.73C302.736 293.261 302.644 281.957 302.641 268.611C302.638 255.264 302.575 244.184 302.5 243.989C302.378 243.672 301.175 243.634 291.227 243.634H280.09V295.177ZM66.573 249.2C65.751 249.268 65.7311 249.291 65.7051 250.21C65.6901 250.727 65.653 265.738 65.6231 283.567C65.5641 318.763 65.636 316.66 64.365 320.52C61.471 329.306 49.685 332.832 39.933 327.828C38.901 327.299 38.786 327.461 37.505 331.239C37.379 331.61 36.656 333.629 35.897 335.726C34.051 340.828 33.193 343.31 33.26 343.359C42.489 350.082 62.011 351.058 73.201 345.355C80.885 341.439 85.9401 333.986 87.1651 324.767C87.4701 322.464 87.706 249.606 87.409 249.308C87.298 249.198 67.822 249.097 66.573 249.2ZM135.726 268.908C128.232 269.626 123.198 270.803 117.443 273.183C115.952 273.799 112.395 275.502 112.395 275.6C112.395 275.634 113.04 277.011 113.828 278.661C116.231 283.687 117.795 286.975 118.486 288.446C119.239 290.053 119.108 289.981 120.23 289.408C121.415 288.804 125.902 287.462 128.884 286.821C144.478 283.466 153.309 289.344 153.826 303.421C154.077 310.276 152.249 313.565 148.514 312.979C147.241 312.78 146.317 312.369 145.723 311.739C145.345 311.339 144.504 310.446 143.853 309.755C137.75 303.273 120.303 303.342 111.604 309.883C106.645 313.611 104.326 318.281 104.145 324.901C103.837 336.177 108.554 343.648 118.452 347.564C127.31 351.069 143.935 348.724 150.694 343.017C153.038 341.038 153.524 340.757 154.826 340.624C157.453 340.354 159.392 341.616 160.057 344.027C160.261 344.767 160.549 345.707 160.696 346.116L160.965 346.859L168.536 346.901L176.108 346.943L176.107 325.182C176.106 303.637 176.028 300.783 175.309 296.018C174.152 288.355 171.319 281.71 167.421 277.515L166.071 276.063L162.733 276.044C156.834 276.011 151.608 274.026 149.033 270.841C147.14 268.5 148.03 268.756 141.911 268.796C138.941 268.816 136.158 268.866 135.726 268.908ZM229.261 269.097C226.016 269.49 223.889 269.953 220.918 270.911L218.396 271.725L216.04 274.138C212.891 277.364 210.518 278.632 207.626 278.632C206.666 278.632 203.371 282.125 201.065 285.586C195.339 294.183 193.322 305.576 195.306 318.116C195.815 321.335 198.924 329.849 199.715 330.193C199.81 330.234 199.888 330.376 199.888 330.508C199.888 330.64 200.14 331.079 200.449 331.484C200.757 331.888 201.01 332.292 201.01 332.382C201.01 332.817 203.36 335.651 205.721 338.062C216.459 349.032 235.878 352.473 252.384 346.33C255.009 345.353 259.751 343.219 260.643 342.612C260.95 342.404 260.792 342.027 257.82 335.838C257.198 334.543 256.178 332.398 255.555 331.071C254.931 329.745 254.361 328.66 254.287 328.66C254.214 328.66 253.73 328.848 253.213 329.077C233.675 337.753 215.427 327.468 216.107 308.164C216.771 289.313 234.046 280.704 254.005 289.278C254.327 289.416 254.579 289.05 255.489 287.122C257.876 282.068 258.542 280.666 259.702 278.25C260.366 276.869 260.909 275.682 260.909 275.613C260.909 275.272 254.448 272.421 250.813 271.159C244.446 268.948 236.646 268.201 229.261 269.097ZM144.212 315.676C147.586 316.502 150.782 318.496 152.957 321.133C153.881 322.254 153.963 327.621 153.084 329.473C152.645 330.399 150.014 332.661 148.097 333.761C146.042 334.94 141.766 335.977 139.875 335.755C133.845 335.046 130.575 332.525 129.445 327.714C128.268 322.697 131.335 317.082 135.904 315.892C136.362 315.773 137.089 315.577 137.521 315.457C138.949 315.061 142.125 315.165 144.212 315.676Z" fill="#F26A50"/>
<rect x="39" y="352" width="311" height="53" rx="13" fill="#9C2800"/>
<path fill-rule="evenodd" clip-rule="evenodd" d="M213.538 4.11099C214.395 3.53599 217.004 2.61999 221.649 1.26299C229.726 -1.09601 236.91 4.05399 235.555 11.234C235.172 13.262 235.328 13.458 237.324 13.467C242.457 13.49 247.376 16.482 248.666 20.367C248.979 21.309 249.173 21.524 250.199 22.059C255.339 24.739 258.861 27.55 265.847 34.544C268.122 36.823 268.152 36.879 268.984 40.55C269.057 40.873 269.111 41.1075 269.135 41.3451C269.2 42.0003 269.034 42.6785 268.403 45.3C268.077 46.653 268.092 46.682 270.281 48.876C271.321 49.917 275.293 54.206 275.919 54.964C277.616 57.015 280.202 60.908 280.202 61.411C280.202 61.481 280.431 61.852 280.711 62.233C281.943 63.912 283.264 68.439 283.03 70.175C282.903 71.112 283.455 72.001 285.145 73.584C285.431 73.851 287.348 76.674 287.669 77.299C287.996 77.937 288.95 81.409 288.952 81.971C288.953 82.109 289.674 82.978 290.554 83.904C291.435 84.829 292.569 86.141 293.076 86.82C293.582 87.499 294.057 88.104 294.131 88.166C294.205 88.228 295.035 89.338 295.974 90.634C296.914 91.929 298.282 93.797 299.015 94.784C299.748 95.771 300.976 97.79 301.743 99.271C302.511 100.752 303.368 102.367 303.649 102.86C304.422 104.217 305.596 108.587 305.879 111.161C306.012 112.363 305.64 114.744 304.983 116.896C304.874 117.252 306.333 117.771 313.18 119.814C314.476 120.2 317.1 121.007 319.013 121.606C320.925 122.205 324.156 123.196 326.192 123.808C328.228 124.42 330.852 125.222 332.025 125.59C333.197 125.958 335.014 126.515 336.063 126.829C337.112 127.142 339.484 127.869 341.335 128.444C343.186 129.018 345.659 129.769 346.831 130.112C348.003 130.455 349.467 130.897 350.084 131.093C350.701 131.289 354.537 132.467 358.609 133.711C362.681 134.955 366.953 136.27 368.102 136.634C369.252 136.999 370.283 137.297 370.394 137.297C371.184 137.297 373.156 138.324 373.677 139.008C373.847 139.231 373.99 139.399 374.09 139.59C374.557 140.48 374.099 141.855 371.143 151.43C370.324 154.083 369.459 156.91 369.22 157.712C368.981 158.514 368.53 160.028 368.219 161.077C367.676 162.903 365.766 169.069 365.096 171.16C364.92 171.708 364.852 172.225 364.945 172.308C365.114 172.459 371.495 176.502 377.454 180.234C379.181 181.316 381.755 182.946 383.174 183.857C384.593 184.767 386.511 185.977 387.437 186.547C388.362 187.116 390.684 188.579 392.597 189.798C394.509 191.017 396.528 192.285 397.084 192.616C399.691 194.171 400.398 195.814 399.267 197.691C398.055 199.702 397.165 201.129 392.366 208.749C387.24 216.89 386.167 218.589 384.858 220.639C384.464 221.256 383.298 223.124 382.267 224.79C381.236 226.455 380.334 227.869 380.262 227.93C380.191 227.992 379.699 228.749 379.17 229.613C377.956 231.594 376.458 233.984 373.752 238.256C372.58 240.107 371.116 242.428 370.499 243.414C369.212 245.47 365.031 252.106 361.552 257.613C359.7 260.546 359.144 261.329 359.344 261.756C359.443 261.967 359.726 262.092 360.127 262.346C363.456 264.45 363.337 268.705 359.807 273.737C359.575 274.068 357.755 277.046 355.763 280.355C353.771 283.664 350.528 289.047 348.557 292.316C346.585 295.586 344.858 298.463 344.72 298.71C344.582 298.957 344.092 299.741 343.631 300.453C343.17 301.165 342.793 301.79 342.793 301.842C342.793 302.004 340.911 304.974 340.61 305.288C340.245 305.669 340.246 306.335 340.612 306.714C340.77 306.877 341.999 308.727 343.344 310.824C344.689 312.922 346.71 316.052 347.835 317.779C349.82 320.826 353.993 327.315 355.132 329.126C356.237 330.884 360.394 337.328 361.454 338.927C362.049 339.824 362.535 340.649 362.535 340.76C362.535 340.87 362.612 340.995 362.706 341.036C363.253 341.274 367.431 348.404 367.687 349.535C368.154 351.593 367.718 353.119 366.242 354.595C365.865 354.973 365.575 355.274 365.241 355.515C363.881 356.5 361.796 356.484 350.098 356.535C341.983 356.571 337.533 356.669 337.488 356.814C337.449 356.938 337.915 357.364 338.522 357.761C338.635 357.835 338.747 357.915 338.857 358H25.4729C25.8694 357.765 26.1995 357.6 26.313 357.6C26.811 357.6 27 357.233 27.758 354.795C28.141 353.561 28.517 352.395 28.593 352.203C28.689 351.959 28.405 351.625 27.657 351.102C22.873 347.752 22.343 345.435 24.782 338.531C28.204 328.843 30.604 322.12 30.977 321.17C31.214 320.568 31.408 319.937 31.408 319.768C31.408 319.048 34.005 316.837 35.183 316.554C37.501 315.998 40.103 316.418 41.405 317.559C44.408 320.189 50.551 321.368 53.282 319.839C55.97 318.333 56.085 317.519 56.085 299.989V285.25L54.795 283.181C54.086 282.043 52.546 279.594 51.374 277.739C50.202 275.883 49.047 274.038 48.807 273.638C48.567 273.238 47.709 271.883 46.9 270.626C46.091 269.369 44.966 267.603 44.4 266.7C43.315 264.97 41.422 261.966 36.65 254.403C35.054 251.873 33.115 248.794 32.34 247.56C31.566 246.326 29.685 243.348 28.16 240.942C25.359 236.522 20.55 228.902 19.518 227.249C18.218 225.167 9.34002 211.094 6.74302 206.998C5.19402 204.554 3.82502 202.382 3.70202 202.171C3.57802 201.96 2.79602 200.706 1.96302 199.384C-0.556982 195.382 -0.324983 194.763 4.93602 191.476C6.47802 190.513 8.24502 189.401 8.86102 189.006C9.47802 188.611 10.993 187.659 12.227 186.891C13.46 186.124 15.227 185.003 16.153 184.401C17.078 183.799 18.239 183.065 18.732 182.77C19.226 182.475 21.094 181.31 22.883 180.182C24.672 179.053 26.67 177.801 27.324 177.399C31.32 174.942 34.324 172.874 34.324 172.582C34.324 172.396 33.964 171.069 33.524 169.633C33.084 168.197 32.383 165.911 31.966 164.554C31.549 163.197 30.793 160.723 30.285 159.058C29.777 157.392 28.971 154.767 28.494 153.225C28.016 151.683 27.528 150.067 27.408 149.635C27.289 149.204 26.732 147.386 26.171 145.597C24.117 139.047 24.237 138.668 28.801 137.28C33.628 135.813 35.624 135.202 44.42 132.502C60.074 127.697 63.34 126.707 64.61 126.38C65.289 126.206 66.046 125.974 66.293 125.866C66.54 125.757 70.426 124.545 74.93 123.172C85.1495 120.057 86.1187 119.797 86.1641 119.424C86.1729 119.352 86.147 119.275 86.147 119.173C86.147 118.869 85.914 118.446 85.621 118.215C83.491 116.54 82.191 112.309 82.884 109.312C83.803 105.344 85.611 102.261 91.32 94.932C92.546 93.358 92.566 93.299 92.108 92.589C91.008 90.886 90.659 87.468 91.307 84.741C92.635 79.148 94.933 75.663 102.279 68.098C107.959 62.248 108.206 61.933 108.563 60.08C109.43 55.575 110.29 52.022 110.749 51.052C111.037 50.442 111.273 49.822 111.273 49.672C111.273 48.673 113.555 43.711 114.5 42.656C115.242 41.828 117.346 40.495 118.388 40.193C119.052 40.001 119.919 39.376 121.304 38.09C122.388 37.083 123.616 35.95 124.033 35.572C125.366 34.361 130.681 28.356 131.958 26.617C132.424 25.982 133.011 25.224 133.261 24.933C133.984 24.094 134.771 22.615 134.949 21.761C135.418 19.508 137.648 15.74 139.076 14.785C139.516 14.49 139.927 14.188 139.989 14.113C140.356 13.665 144.114 12.563 145.274 12.563C147.659 12.563 151.004 14.016 152.269 15.601C153.011 16.53 153.04 16.532 156.088 15.793C157.979 15.336 159.173 15.197 161.638 15.15C164.831 15.09 165.345 14.999 167.134 14.179C167.689 13.925 169.143 13.402 170.364 13.018C171.585 12.634 172.785 12.212 173.031 12.08C173.831 11.652 179.084 9.84799 181.153 9.29199C184.19 8.47499 186.974 8.69699 189.68 9.97399C193.442 11.749 196.966 11.807 200.239 10.148C200.724 9.90199 201.828 9.42799 202.692 9.09499C204.126 8.54199 206.916 7.25099 207.74 6.75899C208.145 6.51699 208.633 6.30099 211.07 5.28799C212.1 4.85999 213.211 4.33099 213.538 4.11099ZM226.352 10.679C226.472 10.322 226.517 9.94299 226.452 9.83799C225.99 9.09099 220.569 10.891 214.55 13.789C212.928 14.57 211.237 15.341 210.792 15.502C210.347 15.662 209.983 15.875 209.983 15.973C209.983 16.072 209.847 16.153 209.681 16.153C209.515 16.153 209.086 16.294 208.728 16.468C203.794 18.853 199.165 20.376 195.698 20.753C194.757 20.856 194.269 21.015 194.179 21.251C193.851 22.106 188.592 20.442 186.414 18.793C184.945 17.682 183.12 17.868 179.361 19.514C179.003 19.671 172.538 21.993 169.265 23.141C168.895 23.271 168.39 23.452 168.144 23.545C167.897 23.637 167.342 23.841 166.91 23.997C166.474 24.154 164.28 24.359 161.974 24.457C156.91 24.674 156.481 24.812 153.786 27.103C152.675 28.047 151.525 29.023 151.229 29.272C150.933 29.521 150.378 30.012 149.995 30.362C148.579 31.658 148.554 31.665 146.025 31.427C143.128 31.155 143.044 31.073 143.2 28.66C143.32 26.784 143.21 26.569 142.629 27.552C142.14 28.38 138.003 33.891 137.165 34.832C136.805 35.235 136.108 36.067 135.614 36.68C132.708 40.292 125.096 47.319 123.216 48.127C122.501 48.4342 122.064 48.607 121.724 48.895C121.135 49.3935 120.839 50.2371 119.9 52.72C118.889 55.393 118.36 57.201 117.996 59.226C116.943 65.08 116.857 65.367 115.704 66.877C113.974 69.144 113.124 70.084 108.545 74.801C106.86 76.538 105.11 78.413 104.656 78.968C104.203 79.523 103.664 80.181 103.458 80.429C102.861 81.152 101.954 82.595 101.27 83.915C99.026 88.243 99.932 89.495 104.2 87.964C106.308 87.207 106.475 87.604 105.274 90.522C104.541 92.303 99.987 99.159 98.941 100.056C98.869 100.118 98.461 100.623 98.033 101.178C97.605 101.733 97.179 102.221 97.085 102.262C96.992 102.303 96.915 102.441 96.915 102.567C96.915 102.694 96.528 103.266 96.055 103.839C93.418 107.028 91.211 111.273 92.19 111.273C93.344 111.273 94.842 109.92 96.837 107.073C99.562 103.184 100.699 102.805 99.639 106.139C99.271 107.297 98.449 109.91 97.812 111.946C97.175 113.982 96.35 116.556 95.978 117.667C95.245 119.855 95.221 121.396 95.885 123.612C96.051 124.167 96.296 125.025 96.428 125.519C96.78 126.825 98.153 131.418 99.044 134.268C101.228 141.251 102.299 145.702 102.299 147.792C102.3 149.243 102.083 149.36 100.532 148.749C98.85 148.086 98.71 148.124 98.71 149.238C98.71 150.53 99.535 154.688 100.058 156.029C100.154 156.276 100.514 157.386 100.857 158.497C101.457 160.438 102.644 163.47 103.779 165.963C104.076 166.614 104.319 167.276 104.319 167.432C104.319 167.589 104.405 167.813 104.512 167.93C105.447 168.963 108.543 178.561 109.031 181.941C109.165 182.866 109.322 183.85 109.381 184.128C109.457 184.491 109.383 184.633 109.115 184.633C108.774 184.633 104.353 182.445 104.094 182.149C103.145 181.061 103.135 181.743 104.07 183.76C105.294 186.399 105.53 186.561 108.608 186.869C110.284 187.037 110.956 187.085 111.391 187.432C111.715 187.689 111.907 188.111 112.283 188.867C112.954 190.219 112.958 190.222 113.965 190.235C115.63 190.256 116.089 191.16 116.99 196.186C117.3 197.914 117.654 199.882 117.776 200.561C117.899 201.239 118.159 202.703 118.354 203.814C118.549 204.924 118.845 206.54 119.011 207.403C119.177 208.267 119.481 209.933 119.685 211.105C119.89 212.277 120.154 213.75 120.273 214.378C120.668 216.474 123.493 220.841 125.173 221.953C126.283 222.687 126.827 222.817 128.949 222.853L130.679 222.883L130.601 225.651C130.515 228.728 130.925 230.754 132.517 235.109C134.914 241.669 137.679 244.444 142.446 245.076L144.35 245.328L145.762 248.46C146.824 250.816 147.354 251.728 147.9 252.142C149.916 253.667 151.12 255.518 153.023 260.011C154.851 264.328 156.849 266.119 160.555 266.765C161.958 267.009 162.908 266.988 167.947 266.602C169.755 266.464 170.683 266.65 172.976 267.613C173.494 267.83 178.952 269.826 182.948 271.258C183.693 271.525 184.148 271.724 184.619 271.774C185.653 271.884 186.764 271.275 191.202 269.097C194.344 267.555 197.043 266.293 197.2 266.293C197.437 266.293 205.954 269.087 207.082 269.535C207.585 269.735 208.293 269.027 212.457 264.154C213.613 262.801 214.968 261.233 215.468 260.671C216.43 259.587 217.898 257.903 220.436 254.966C225.777 248.788 226.543 248.318 228.289 250.14C230.196 252.131 230.59 251.713 234.41 243.634C234.905 242.586 235.6 241.223 235.952 240.606C236.304 239.989 237.004 238.727 237.506 237.801C238.008 236.876 238.87 235.311 239.422 234.324C239.974 233.337 240.858 231.722 241.387 230.735C241.915 229.748 242.654 228.385 243.028 227.706C243.402 227.027 243.928 226.068 244.197 225.575C245.036 224.037 248.678 217.393 250.1 214.807C251.389 212.462 251.49 212.341 252.129 212.394C253.072 212.47 253.804 211.247 256.528 205.048C257.871 201.991 257.992 201.685 257.992 201.338C257.992 201.158 258.093 201.01 258.216 201.01C258.34 201.01 258.441 200.848 258.441 200.651C258.441 200.454 258.584 199.974 258.759 199.585C258.934 199.196 259.599 197.465 260.236 195.738C260.873 194.01 261.483 192.395 261.59 192.148C261.697 191.901 262.217 190.387 262.744 188.783L263.703 185.867L263.718 179.921C263.735 173.438 263.888 172.539 265.27 170.856L265.806 170.203L266.91 170.912C267.571 171.336 267.926 171.571 268.245 171.53C268.633 171.479 268.967 171.02 269.733 169.994C270.401 169.1 271.312 168.021 271.758 167.598L272.568 166.828L274.534 167.102C275.615 167.252 276.763 167.431 277.084 167.499L277.667 167.622L277.826 164.518C277.913 162.81 278.077 160.404 278.191 159.17C278.304 157.936 278.447 156.321 278.51 155.58C279.139 148.104 280.49 140.581 281.631 138.208C282.338 136.736 282.629 136.647 283.99 137.484C285.637 138.497 285.644 138.493 286.819 135.67C287.397 134.282 288.338 132.155 288.91 130.944L289.95 128.741L290.689 128.879L291.428 129.018L291.303 128.054C290.345 120.623 289.637 116.533 289.195 115.872C289.112 115.749 288.911 115.254 288.747 114.773C287.998 112.572 286.518 110.75 285.19 110.395C284.479 110.205 284.346 109.855 281.946 101.851C281.816 101.419 281.633 100.864 281.538 100.617C281.443 100.37 281.194 99.512 280.984 98.71C280.774 97.908 280.525 97.151 280.43 97.027C280.336 96.904 280.199 96.5 280.126 96.13C280.102 96.0078 280.072 95.856 280.04 95.6926C279.975 95.361 279.9 94.9816 279.845 94.705C279.788 94.4188 279.722 94.2137 279.792 94.1448C279.939 93.9982 280.698 94.4673 283.455 96.08C286.585 97.911 286.921 98.187 287.883 99.707C288.277 100.331 288.654 100.892 288.72 100.953C288.785 101.015 289.289 101.722 289.838 102.524C290.388 103.326 291.189 104.487 291.619 105.104C292.048 105.721 293.161 107.336 294.09 108.693C295.02 110.05 295.863 111.262 295.963 111.385C296.063 111.509 296.29 111.812 296.467 112.058C297.486 113.479 296.268 108.877 294.847 105.933C293.118 102.354 288.243 95 286.489 93.326C286.424 93.264 285.869 92.608 285.254 91.868C284.13 90.513 280.617 86.79 279.476 85.744L278.863 85.182L279.42 84.666C280.162 83.979 280.131 83.218 279.289 81.44C278.598 79.979 278.224 79.573 272.06 73.605C269.683 71.304 269.84 70.236 272.583 70.037C273.914 69.941 273.951 69.922 273.815 69.381C273.372 67.617 270.483 62.651 268.873 60.887C267.762 59.67 262.611 54.099 258.306 49.459C251.865 42.515 251.711 42.344 251.711 42.132C251.711 42.033 252.342 41.94 253.113 41.926C253.884 41.911 254.919 41.883 255.412 41.862C255.906 41.841 257.168 41.8 258.216 41.77L260.123 41.715L257.977 39.646C256.797 38.508 254.887 36.719 253.733 35.67C252.579 34.621 251.52 33.65 251.381 33.512C251.241 33.373 249.971 32.574 248.558 31.736C242.097 27.904 240.073 26.036 240.05 23.885C240.034 22.411 236.916 22.196 230.637 23.236C226.148 23.98 226.127 23.974 227.602 22.353C227.73 22.213 228.174 21.621 228.589 21.039L229.343 19.98L228.805 19.532C228.509 19.285 228.207 19.081 228.134 19.076C228.06 19.072 227.707 18.817 227.348 18.508C226.99 18.2 226.622 17.948 226.531 17.948C226.44 17.947 226.187 17.801 225.97 17.623C225.753 17.444 225.344 17.116 225.062 16.894L224.55 16.489L225.342 13.909C225.778 12.49 226.233 11.037 226.352 10.679ZM192.655 20.574C192.935 20.627 193.338 20.625 193.553 20.569C193.767 20.513 193.539 20.469 193.045 20.472C192.552 20.474 192.376 20.52 192.655 20.574ZM143.795 25.467C144.168 25.237 145.373 22.58 145.373 21.99C145.373 21.202 144.977 21.496 144.372 22.733C143.683 24.142 143.344 25.746 143.795 25.467ZM317.555 126.646C313.461 125.381 310.174 124.373 305.104 122.829C302.451 122.021 300.104 121.304 299.888 121.237C299.429 121.093 299.394 121.38 299.737 122.492C300.223 124.067 300.599 129.509 300.311 130.806L300.134 131.606L302.226 132.892C303.377 133.599 306.792 135.74 309.815 137.65C312.838 139.56 317.91 142.761 321.087 144.762C324.264 146.764 327.292 148.673 327.817 149.004C328.342 149.336 329.176 149.85 329.669 150.148C330.163 150.445 332.838 152.131 335.614 153.894L336.418 154.405C342.879 158.508 343.118 158.66 344.855 159.757C356.234 166.947 359.556 169.013 359.871 169.095C359.95 169.116 360.009 169.145 360.065 169.14C360.309 169.118 360.494 168.448 361.965 163.601C363.176 159.612 364.427 155.527 366.962 147.28C368.092 143.604 368.478 142.566 368.127 142.148C367.944 141.931 367.562 141.881 366.981 141.715C365.402 141.263 351.46 137.028 347.616 135.832C346.259 135.409 343.13 134.452 340.662 133.703C338.194 132.955 335.216 132.047 334.044 131.685C332.872 131.323 329.237 130.213 325.967 129.218C322.698 128.223 318.912 127.066 317.555 126.646ZM89.062 132.81C88.834 132.131 88.278 130.163 87.827 128.435C87.2239 126.124 87.0562 125.325 86.6479 125.173C86.3981 125.08 86.0584 125.229 85.474 125.422C84.795 125.646 81.363 126.704 77.846 127.773C69.813 130.214 60.539 133.046 57.319 134.041C50.822 136.048 35.506 140.719 33.262 141.379C30.606 142.16 30.483 142.267 30.945 143.399C31.06 143.683 31.458 144.924 31.828 146.158C32.864 149.609 34.94 156.425 35.79 159.17C36.211 160.527 37.107 163.44 37.781 165.643C38.6579 168.508 38.893 169.543 39.3529 169.655C39.6666 169.732 40.085 169.379 40.883 168.883C42.478 167.892 52.047 161.86 56.793 158.852C57.491 158.41 59.409 157.2 61.056 156.163C65.695 153.241 69.706 150.705 70.738 150.041C71.254 149.709 72.058 149.204 72.523 148.92C72.988 148.635 74.401 147.751 75.663 146.956C76.926 146.161 80.684 143.797 84.016 141.704C87.347 139.611 90.153 137.829 90.25 137.745C90.43 137.591 89.823 135.072 89.062 132.81ZM305.659 141.246C304.669 140.616 303.693 140 303.49 139.877C303.287 139.753 302.32 139.134 301.342 138.501L299.563 137.349L296.815 141.754C295.303 144.176 292.628 148.43 290.87 151.207L287.673 156.256L287.517 157.937C287.229 161.034 287.115 162.972 287.131 164.53C287.204 171.615 283.015 176.556 276.938 176.556C276.35 176.556 276.062 176.712 275.671 177.24C275.393 177.617 274.618 178.338 273.95 178.843L272.734 179.761L272.882 182.531C273.033 185.364 272.189 190.066 271.109 192.402C270.93 192.788 270.662 193.646 270.513 194.308C270.364 194.971 270.182 195.564 270.109 195.625C270.037 195.687 269.781 196.343 269.542 197.084C269.302 197.824 268.939 198.739 268.736 199.118C268.532 199.496 268.29 200.149 268.198 200.569C268.106 200.988 267.955 201.486 267.863 201.675C267.812 201.779 267.702 202.003 267.572 202.272C267.465 202.491 267.344 202.74 267.228 202.976C266.971 203.502 266.694 204.286 266.613 204.717C266.532 205.148 266.377 205.557 266.267 205.624C266.158 205.692 266.068 205.902 266.068 206.09C266.068 206.279 265.628 207.358 265.089 208.489C264.55 209.619 263.994 210.897 263.854 211.329C263.714 211.761 263.298 212.569 262.928 213.124C262.559 213.679 262.256 214.278 262.256 214.454C262.253 215.168 259.513 218.791 258.329 219.645C257.783 220.039 257.023 221.1 256.554 222.123C256.204 222.887 255.966 223.304 255.285 224.345C255.081 224.656 254.836 225.161 254.74 225.467C254.644 225.773 254.277 226.446 253.923 226.961C253.57 227.477 253.281 227.955 253.281 228.023C253.281 228.091 252.877 228.807 252.384 229.613C251.89 230.419 251.486 231.215 251.486 231.381C251.486 231.548 251.277 231.95 251.02 232.276C250.764 232.602 250.207 233.535 249.783 234.349C249.358 235.163 248.861 236.043 248.678 236.305C248.495 236.566 248.345 236.911 248.345 237.071C248.345 237.231 248.07 237.789 247.733 238.311C247.163 239.194 246.754 239.94 245.427 242.513C245.14 243.068 244.788 243.674 244.644 243.859C244.5 244.044 244.151 244.749 243.867 245.426C243.584 246.103 243.113 246.971 242.82 247.354C242.528 247.738 242.288 248.184 242.288 248.346C242.288 250.051 238.103 256.345 235.831 258.059L234.58 259.002L238.042 259.138C248.676 259.558 265.554 265.509 269.644 270.281L270.552 271.34L270.556 255.861C270.56 241.242 270.559 239.274 271.402 237.783C271.535 237.547 271.69 237.324 271.868 237.064C273.95 234.038 274.494 233.956 291.868 234.038C305.068 234.1 307.051 234.092 308.474 234.98C308.755 235.156 309.015 235.367 309.336 235.621C309.891 236.06 310.333 236.389 310.684 236.795C312.098 238.43 312.053 241.327 312.063 257.768L312.073 275.154L312.748 274.033C313.119 273.416 314.217 271.548 315.189 269.882C318.662 263.927 319.406 263.077 322.097 261.99L323.388 261.469L338.17 261.357L352.952 261.245L353.354 260.684C353.575 260.376 355.849 256.792 358.408 252.72C365.623 241.239 368.447 236.757 369.982 234.347C370.76 233.125 371.437 232.015 371.486 231.879C371.536 231.743 371.643 231.582 371.725 231.52C371.807 231.458 373.029 229.564 374.44 227.311C377.22 222.872 378.947 220.127 382.023 215.255C383.114 213.528 386 208.934 388.437 205.048C390.874 201.161 393.056 197.713 393.285 197.384C393.427 197.181 393.553 197.057 393.564 196.923C393.591 196.583 392.876 196.183 389.792 194.276C387.942 193.132 385.418 191.547 384.184 190.755C381.235 188.861 374.784 184.787 362.423 177.015C356.87 173.523 351.671 170.244 350.869 169.726C350.067 169.209 347.998 167.901 346.27 166.82C344.543 165.739 342.17 164.244 340.998 163.499C339.826 162.754 337.858 161.513 336.624 160.741C335.39 159.97 331.755 157.681 328.547 155.656C325.339 153.631 319.282 149.817 315.087 147.182C310.892 144.547 306.649 141.875 305.659 141.246ZM90.197 153.908C89.571 151.028 89.6 148.518 90.291 145.829C90.59 144.661 90.814 143.684 90.787 143.657C90.761 143.63 87.308 145.781 83.115 148.436C78.922 151.092 73.32 154.627 70.667 156.293C68.015 157.959 63.875 160.567 61.469 162.088C59.063 163.61 55.681 165.738 53.954 166.817C52.227 167.896 50.157 169.202 49.355 169.719C47.997 170.594 36.622 177.769 27.594 183.445C21.167 187.486 16.822 190.235 15.263 191.246C14.457 191.77 12.283 193.134 10.432 194.277C7.35109 196.181 6.63391 196.582 6.66198 196.922C6.67306 197.056 6.80025 197.181 6.94402 197.384C7.17602 197.713 10.469 202.928 14.262 208.974C21.856 221.08 26.15 227.897 27.263 229.613C27.663 230.23 30.088 234.066 32.651 238.138C35.215 242.21 38.171 246.904 39.221 248.57C40.271 250.236 42.559 253.87 44.306 256.646C46.932 260.818 51.994 268.845 55.268 274.028L55.973 275.144L56.092 260.119C56.2005 246.354 56.1811 243.792 57.4278 242.263C57.756 241.86 58.1719 241.529 58.701 241.084C58.9623 240.864 59.1714 240.68 59.4004 240.525C60.6378 239.686 62.4553 239.704 76.214 239.645C94.072 239.568 94.125 239.575 96.117 242.347C96.1806 242.435 96.2402 242.517 96.2961 242.602C97.1432 243.882 97.1371 245.727 97.139 278.856L97.141 312.844L98.037 311.206C100.708 306.318 105.946 301.471 111.049 299.164C112.217 298.636 112.679 298.43 112.718 298.162C112.744 297.985 112.587 297.78 112.327 297.439C112.014 297.028 111.41 295.934 110.983 295.008C110.557 294.083 109.589 292.039 108.834 290.465C108.078 288.892 107.459 287.568 107.459 287.524C107.459 287.479 106.714 285.889 105.803 283.99C102.01 276.085 101.857 275.597 102.405 273.132C103.01 270.412 104.08 269.307 108.382 266.958C116.543 262.502 129.962 259.114 139.452 259.114C141.657 259.114 141.866 259.01 141.083 258.307C140.501 257.785 138.923 255.518 138.289 254.293C137.988 253.713 137.589 253.314 137.167 253.172C136.806 253.05 136.461 252.889 136.399 252.814C136.338 252.739 135.993 252.605 135.634 252.517C135.275 252.429 133.931 251.642 132.647 250.768C129.096 248.351 126.035 244.23 124.516 239.821C124.367 239.389 124.115 238.783 123.956 238.474C123.797 238.166 123.393 236.803 123.059 235.446C122.725 234.089 122.366 232.814 122.262 232.613C122.158 232.412 122.003 231.881 121.919 231.433C121.788 230.731 121.513 230.44 119.941 229.334C117.744 227.789 117.068 227.086 115.25 224.453C112.245 220.104 111.049 217.328 111.049 214.703C111.049 214.317 110.906 213.375 110.732 212.609C110.558 211.844 110.299 210.51 110.156 209.647C110.014 208.783 109.759 207.37 109.589 206.506C109.42 205.642 109.127 204.027 108.939 202.916C108.12 198.076 108.068 197.878 107.54 197.532C107.26 197.349 106.648 196.815 106.179 196.347C105.483 195.651 105.052 195.439 103.814 195.184C102.981 195.013 102.299 194.8 102.299 194.712C102.299 194.624 102.066 194.494 101.78 194.422C100.301 194.051 96.25 189.989 96.239 188.867C96.238 188.697 95.95 187.994 95.6 187.304C95.25 186.614 94.732 185.111 94.449 183.963L93.933 181.877L94.46 179.645C94.976 177.46 95.941 175.672 97.057 174.832C97.373 174.594 97.349 174.438 96.826 173.332C96.505 172.653 96.242 171.96 96.242 171.792C96.242 171.624 96.152 171.39 96.042 171.273C95.931 171.156 95.58 170.328 95.261 169.432C94.942 168.537 94.529 167.573 94.343 167.29C94.158 167.006 93.602 165.544 93.107 164.039C92.613 162.534 92.108 161.126 91.984 160.909C91.745 160.491 90.956 157.399 90.197 153.908ZM302.641 268.611C302.638 255.264 302.575 244.184 302.5 243.989C302.378 243.672 301.175 243.634 291.227 243.634H280.09V295.177C280.09 329.279 280.166 346.775 280.314 346.884C280.722 347.184 302.064 347.089 302.367 346.786C302.57 346.583 302.636 343.146 302.636 332.694C302.636 319.561 302.615 317.557 303.592 316.389C303.791 316.151 304.031 315.948 304.321 315.693C306.787 313.521 310.465 314.438 312.079 317.625C312.246 317.957 312.797 318.934 313.303 319.798C313.808 320.662 314.81 322.378 315.528 323.612C316.247 324.846 317.123 326.336 317.475 326.924C317.827 327.512 318.116 328.035 318.116 328.086C318.116 328.136 318.609 328.982 319.212 329.964C319.815 330.947 320.607 332.292 320.973 332.953C321.601 334.091 322.425 335.51 325.188 340.213C325.84 341.324 326.662 342.737 327.013 343.354C327.365 343.971 327.955 345 328.324 345.641C328.694 346.282 329.198 346.861 329.445 346.928C330.032 347.087 354.822 347.067 354.982 346.907C355.049 346.839 354.543 345.911 353.858 344.845C353.173 343.778 352.296 342.408 351.909 341.8C351.522 341.192 350.398 339.456 349.411 337.942C348.424 336.429 346.975 334.179 346.192 332.943C345.409 331.706 343.844 329.28 342.715 327.551C341.586 325.822 339.955 323.296 339.091 321.937C335.965 317.02 334.276 314.409 334.05 314.143C333.923 313.994 333.819 313.821 333.819 313.759C333.819 313.697 333.131 312.607 332.289 311.338C330.897 309.236 330.535 308.714 330.339 308.136C330.253 307.885 330.199 307.624 330.105 307.219C329.643 305.233 329.947 304.448 333.269 299.047C335.239 295.843 343.451 282.25 344.093 281.132C344.401 280.594 345.895 278.121 347.414 275.635L350.174 271.116L338.127 271.004C331.501 270.942 325.959 270.926 325.812 270.967C325.565 271.036 324.947 272.044 321.524 277.958C320.846 279.131 319.701 281.079 318.979 282.287C318.257 283.496 317.667 284.574 317.667 284.683C317.667 284.792 317.539 285.014 317.383 285.177C317.143 285.429 314.918 289.16 313.929 290.97C311.137 296.082 310.033 297.14 307.496 297.139C304.998 297.137 303.356 295.934 302.845 293.73C302.736 293.261 302.644 281.957 302.641 268.611ZM87.165 324.767C87.47 322.464 87.706 249.606 87.409 249.308C87.298 249.198 67.822 249.097 66.573 249.2C65.751 249.268 65.731 249.291 65.705 250.21C65.69 250.727 65.653 265.738 65.623 283.567C65.5726 313.637 65.6178 316.481 64.8395 319.079C64.7068 319.522 64.5501 319.958 64.365 320.52C61.471 329.306 49.685 332.832 39.933 327.828C38.901 327.299 38.786 327.461 37.505 331.239C37.379 331.61 36.656 333.629 35.897 335.726C34.051 340.828 33.193 343.31 33.26 343.359C42.489 350.082 62.011 351.058 73.201 345.355C80.885 341.439 85.94 333.986 87.165 324.767ZM149.033 270.841C148.562 270.259 147.982 269.553 147.744 269.272C147.329 268.781 139.516 268.544 135.726 268.908C128.232 269.626 123.198 270.803 117.443 273.183C115.952 273.799 112.395 275.502 112.395 275.6C112.395 275.634 113.04 277.011 113.828 278.661C116.231 283.687 117.795 286.975 118.486 288.446C118.899 289.328 119.046 289.704 119.28 289.769C119.472 289.823 119.724 289.667 120.23 289.408C121.415 288.804 125.902 287.462 128.884 286.821C144.478 283.466 153.309 289.344 153.826 303.421C154.105 311.057 152.075 313.94 147.293 312.697C146.804 312.569 146.103 312.142 145.723 311.739C145.408 311.405 144.769 310.728 144.188 310.111L143.853 309.755C136.846 302.314 116.918 303.666 109.136 312.11C105.581 315.967 104.299 319.253 104.145 324.901C103.837 336.177 108.554 343.648 118.452 347.564C127.31 351.069 143.935 348.724 150.694 343.017C153.038 341.038 153.524 340.757 154.826 340.624C157.453 340.354 159.392 341.616 160.057 344.027C160.261 344.767 160.549 345.707 160.696 346.116L160.965 346.859L168.536 346.901L176.108 346.943L176.107 325.182C176.106 303.637 176.028 300.783 175.309 296.018C174.152 288.355 171.319 281.71 167.421 277.515L166.071 276.063L162.733 276.044C156.834 276.011 151.608 274.026 149.033 270.841ZM258.339 274.257C252.505 271.463 247.132 269.743 242.19 269.086C235.585 268.209 227.013 268.944 220.918 270.911L218.396 271.725L216.04 274.138C212.891 277.364 210.518 278.632 207.626 278.632C206.666 278.632 203.371 282.125 201.065 285.586C195.339 294.183 193.322 305.576 195.306 318.116C195.815 321.335 198.924 329.849 199.715 330.193C199.81 330.234 199.888 330.376 199.888 330.508C199.888 330.64 200.14 331.079 200.449 331.484C200.757 331.888 201.01 332.292 201.01 332.382C201.01 332.471 201.434 333.109 201.953 333.799C212.746 348.141 233.596 353.322 252.384 346.33C255.009 345.353 259.751 343.219 260.643 342.612C260.95 342.404 260.792 342.027 257.82 335.838C257.198 334.543 256.178 332.398 255.555 331.071C254.931 329.745 254.361 328.66 254.287 328.66C254.214 328.66 253.73 328.848 253.213 329.077C233.675 337.753 215.427 327.468 216.107 308.164C216.771 289.313 234.046 280.704 254.005 289.278C254.327 289.416 254.579 289.05 255.489 287.122C257.876 282.068 258.542 280.666 259.702 278.25C260.366 276.869 260.909 275.682 260.909 275.613C260.909 275.544 259.752 274.934 258.339 274.257ZM261 302.213C270.065 307.965 270.311 308.115 270.466 307.96C270.517 307.909 270.532 301.115 270.501 292.862L270.443 277.857L269.505 279.871C268.989 280.978 267.866 283.348 267.009 285.137C266.153 286.927 265.046 289.248 264.551 290.297C260.997 297.819 260.334 298.848 258.454 299.759L257.754 300.098L258.602 300.664C259.069 300.975 260.148 301.673 261 302.213ZM142.398 297.185C141.934 296.762 140.991 296.199 140.303 295.936C139.286 295.547 138.566 295.457 136.454 295.457C133.405 295.457 133.373 295.557 136.232 296.141C137.4 296.38 139.253 296.84 140.35 297.163C142.195 297.708 142.906 297.92 142.963 297.805C143 297.731 142.77 297.524 142.398 297.185ZM135.904 315.892C136.362 315.773 137.089 315.577 137.521 315.457C142.263 314.142 149.334 316.742 152.957 321.133C153.881 322.254 153.963 327.621 153.084 329.473C152.338 331.046 148.033 334.154 145.709 334.798C141.422 335.985 140.389 336.031 136.916 335.188C132.088 334.018 128.424 329.12 129.113 324.757C129.827 320.237 132.47 316.787 135.904 315.892Z" fill="#9C2800"/>
<path d="M198.344 166.928C199.544 168.928 200.844 169.761 201.344 169.928C201.744 165.528 195.677 149.428 192.844 142.428C192.344 141.428 192.344 142.428 192.344 142.928C191.344 158.928 192.844 166.428 192.844 166.928C192.844 167.428 192.844 168.428 193.344 167.428C193.744 166.628 194.51 165.761 194.844 165.428C195.51 165.095 197.144 164.928 198.344 166.928Z" fill="#FAAD81"/>
<path d="M206.5 179C204.9 174.2 201.167 173 199.5 173C196.7 172.6 193.333 175.833 192 177.5C198 179.1 204.167 179.167 206.5 179Z" fill="white"/>
<path d="M184.5 175C182.9 173.8 179.833 173.167 178.5 173C174.5 173.4 173.833 176.167 174 177.5C174 178.167 175 179.3 179 178.5C183 177.7 184.333 175.833 184.5 175Z" fill="white"/>
<path d="M213.5 204C198.7 212.8 177 209.667 168 207C167.5 206.833 166.7 206.8 167.5 208C168.3 209.2 169.167 211.5 169.5 212.5C170.3 214.9 175.167 215.5 177.5 215.5C203 214.5 212.5 207 213 206.5C213.4 206.1 213.5 204.667 213.5 204Z" fill="white"/>
<rect x="124" y="135" width="4" height="5" fill="white"/>
<ellipse cx="150" cy="155.5" rx="16" ry="9.5" fill="white"/>
<ellipse cx="166" cy="137.5" rx="16" ry="9.5" fill="white"/>
<ellipse cx="220" cy="153.5" rx="16" ry="9.5" fill="white"/>
<ellipse cx="232" cy="136.5" rx="16" ry="9.5" fill="white"/>
<ellipse cx="250.5" cy="133" rx="5.5" ry="3" fill="white"/>
<path fill-rule="evenodd" clip-rule="evenodd" d="M223.444 125.649C221.778 125.745 220.011 125.887 219.518 125.963C219.024 126.039 217.914 126.195 217.05 126.309C214.959 126.586 213.274 126.901 212.39 127.18C211.992 127.306 210.959 127.575 210.095 127.779C206.208 128.696 202.242 130.222 198.317 132.311L195.962 133.565L188.681 133.692L181.401 133.819L179.812 132.249C176.699 129.171 173.126 127.742 166.573 126.954C164.228 126.672 155.228 126.816 152.271 127.182C151.192 127.316 149.476 127.525 148.458 127.647C147.44 127.769 145.951 127.975 145.149 128.105C144.347 128.236 142.63 128.479 141.335 128.646C140.039 128.813 137.112 129.212 134.829 129.533C132.546 129.853 130.092 130.174 129.375 130.247C128.658 130.319 128.035 130.496 127.991 130.64C127.947 130.785 127.742 131.509 127.536 132.249C126.823 134.805 126.997 134.651 124.91 134.567L123.075 134.492L122.562 135.39C122.015 136.346 121.807 139.72 122.251 140.422C122.403 140.661 123.188 140.775 125.333 140.87L128.211 140.998L128.363 142.681C129.615 156.502 131.779 160.145 140.924 163.832C141.981 164.259 143.39 164.735 144.054 164.891C144.718 165.047 145.45 165.272 145.681 165.392C146.279 165.701 150.669 166.826 153.449 167.383C163.372 169.37 172.27 166.333 176.816 159.408C180.938 153.126 183.182 146.651 183.018 141.51L182.917 138.348L189.419 138.498C196.574 138.663 196.52 138.651 196.528 140.072C196.558 145.901 203.24 159.024 207.507 161.638C207.708 161.761 208.187 162.148 208.571 162.497C210.676 164.415 215.4 166.461 217.723 166.461C218.423 166.461 221.643 165.739 224.79 164.877C225.222 164.759 226.892 164.309 228.501 163.877C230.11 163.446 232.533 162.626 233.885 162.056C235.237 161.486 236.848 160.841 237.465 160.624C243.287 158.571 245.567 157.337 246.744 155.602C248.534 152.961 248.98 150.954 249.34 143.915C249.732 136.25 249.257 137.072 253.292 137.072C257.054 137.072 256.88 137.154 256.62 135.502C256.513 134.823 256.322 133.511 256.194 132.586C256.067 131.66 255.852 130.625 255.716 130.286L255.47 129.669H252.582H249.694L248.726 128.714C246.287 126.31 235.215 124.967 223.444 125.649ZM242.506 129.91C244.036 130.603 244.231 131.805 243.496 136.007C243.296 137.148 243.069 138.839 242.991 139.764L242.849 141.447L241.659 141.374C240.526 141.304 239.047 141.989 238.736 142.728C238.695 142.825 238.53 142.905 238.369 142.905C238.209 142.905 237.788 143.056 237.435 143.24C235.989 143.994 235.324 143.398 236.476 142.38C240.285 139.012 240.166 139.148 239.717 138.652C239.489 138.4 239.167 138.194 239.001 138.194C238.835 138.194 238.699 138.1 238.699 137.985C238.699 137.87 238.49 137.709 238.234 137.628C237.835 137.502 237.789 137.36 237.911 136.639C238.051 135.812 238.036 135.791 237.079 135.425C236.027 135.024 235.109 134.938 235.109 135.242C235.109 136.337 233.421 136.002 229.837 134.196C228.233 133.387 226.751 132.647 226.544 132.551C226.337 132.455 225.504 132.309 224.693 132.226C223.127 132.065 222.787 131.711 223.719 131.212C223.995 131.065 224.351 130.813 224.512 130.652C224.998 130.166 226.362 129.897 228.491 129.868C229.602 129.853 231.167 129.767 231.969 129.677C235.409 129.29 241.434 129.423 242.506 129.91ZM176.203 131.52C177.305 136.89 178.034 142.057 177.755 142.513C177.698 142.605 177.392 142.681 177.074 142.681C176.525 142.681 175.723 142.801 171.85 143.463C169.653 143.838 169.171 143.685 169.94 142.855C170.248 142.523 170.499 142.187 170.499 142.108C170.499 142.029 170.708 141.671 170.964 141.312C172.129 139.676 171.475 136.848 169.931 136.848C169.641 136.848 169.265 136.651 169.096 136.411C168.806 135.995 168.647 135.984 165.999 136.195C161.144 136.58 158.229 136.056 158.308 134.811C158.398 133.413 159.193 132.638 160.694 132.487C166.032 131.95 169.1 131.615 170.948 131.366C174.599 130.874 176.079 130.917 176.203 131.52ZM251.259 131.35C252.399 131.94 252.034 135.502 250.834 135.502H250.207L250.062 133.46C249.877 130.847 249.97 130.683 251.259 131.35ZM126.917 136.133C127.542 136.53 126.999 139.329 126.328 139.169C125.431 138.955 125.149 138.629 125.211 137.875C125.242 137.495 125.15 136.971 125.008 136.709C124.622 136.001 126.036 135.574 126.917 136.133ZM209.447 150.353C210.298 150.855 211.761 152.286 211.772 152.628C211.785 153.024 212.825 153.658 213.685 153.792C214.815 153.969 215.195 154.258 215.594 155.244C215.93 156.074 215.944 156.097 216.8 157.151L217.346 157.824L220.372 157.936C224.506 158.089 225.769 159.016 222.939 159.82C222.168 160.039 221.26 160.322 220.922 160.45C220.583 160.577 220.028 160.609 219.688 160.52C219.347 160.431 217.555 160.341 215.704 160.32C213.635 160.296 212.166 160.182 211.89 160.022C211.643 159.88 210.937 159.535 210.32 159.256C207.639 158.046 203.001 150.757 204.911 150.757C205.083 150.757 205.663 150.557 206.201 150.313C207.477 149.734 208.418 149.746 209.447 150.353ZM140.951 152.899C144.412 154.302 144.263 154.241 145.229 154.66C145.971 154.982 146.08 155.118 145.986 155.605C145.865 156.243 146.442 156.59 147.623 156.59C148.235 156.59 148.964 157.336 148.655 157.645C148.414 157.887 149.226 158.436 150.258 158.731C150.841 158.897 152.414 159.365 153.754 159.771L156.19 160.509L155.437 160.821C154.701 161.126 154.695 161.139 155.188 161.364C155.466 161.49 155.705 161.68 155.721 161.784C155.736 161.889 155.761 162.067 155.777 162.18C155.792 162.293 155.881 162.461 155.973 162.554C156.363 162.944 156.143 163.94 155.637 164.076C154.402 164.407 150.757 163.981 150.757 163.506C150.757 163.404 150.564 163.32 150.329 163.32C149.834 163.32 145.683 161.766 143.658 160.822C142.9 160.469 142.177 160.179 142.051 160.179C141.924 160.179 141.787 160.104 141.746 160.011C141.705 159.919 141.167 159.592 140.55 159.284C139.933 158.977 139.232 158.548 138.993 158.331C138.754 158.114 138.427 157.936 138.267 157.936C137.73 157.936 135.348 155.318 135.197 154.561C134.924 153.197 136.11 152.167 138.259 151.901C138.357 151.889 139.568 152.338 140.951 152.899Z" fill="#DCDCDC"/>
<mask id="path-21-outside-1_1_13" maskUnits="userSpaceOnUse" x="10" y="353" width="369" height="63" fill="black">
<rect fill="white" x="10" y="353" width="369" height="63"/>
<path fill-rule="evenodd" clip-rule="evenodd" d="M128.581 371.414V379.807L126.729 377.976C117.308 368.667 101.319 375.782 101.348 389.269C101.356 392.637 102.557 396.824 103.923 398.243C104.101 398.428 104.594 399.023 105.018 399.566C110.157 406.142 120.612 406.782 126.896 400.905C128.678 399.237 128.581 399.177 128.581 401.954V404.318L130.432 404.253L132.283 404.188L132.34 383.605L132.398 363.021H130.489H128.581V371.414ZM230.846 363.25C213.789 365.737 206.71 386.264 218.557 398.888C226.634 407.496 242.338 407.32 250.856 398.526C252.259 397.078 252.279 397.178 250.274 395.653L248.968 394.66L247.788 395.857C237.644 406.152 219.886 401.299 217.311 387.528C214.193 370.854 234.653 359.898 246.901 371.683C249.192 373.888 248.959 373.834 250.591 372.536C252.161 371.287 252.165 371.22 250.743 369.664C246.209 364.703 238.319 362.16 230.846 363.25ZM340.72 371.322C340.72 375.887 340.666 379.623 340.6 379.623C340.534 379.623 339.918 379.019 339.23 378.282C332.676 371.251 320.733 372.777 315.611 381.299C312.861 385.874 312.696 391.595 315.167 396.636C319.515 405.508 331.645 407.741 338.918 401.008C340.841 399.227 340.72 399.164 340.72 401.945V404.3H342.627H344.534V383.661V363.021H342.627H340.72V371.322ZM20 365.938V367.957H24.487H28.974V386.129V404.3H31.082H33.19L33.169 403.683C33.157 403.344 33.167 395.167 33.192 385.512L33.236 367.957H37.723H42.21V365.938V363.919H31.105H20V365.938ZM55.539 374.107C53.997 374.59 53.158 375.163 51.464 376.893L49.838 378.553V376.508V374.463H47.875H45.912V389.381V404.3H47.875H49.838L49.844 397.402C49.854 386.867 50.222 383.587 51.68 381.02C53.237 378.277 55.96 376.928 58.409 377.684C59.026 377.875 60.98 375.493 60.764 374.813C60.515 374.029 57.214 373.582 55.539 374.107ZM74.872 374.144C65.673 376.203 60.424 386.392 63.983 395.28C68.032 405.391 80.979 408.223 88.714 400.689C90.082 399.357 89.963 399.235 90.011 402.008L90.05 404.3H92.032H94.014L94.015 389.382L94.016 374.463H92.006C90.9 374.463 90.007 374.539 90.021 374.631C90.036 374.724 90.036 375.871 90.021 377.18L89.995 379.561L88.256 377.843C84.809 374.438 79.775 373.047 74.872 374.144ZM151.24 374.124C139.989 376.651 135.713 391.446 143.685 400.262C149.777 406.998 161.694 406.479 167.304 399.233C168.059 398.257 169.269 396.223 169.151 396.127C169.109 396.093 168.401 395.693 167.578 395.238L166.081 394.41L165.346 395.485C158.578 405.391 145.109 402.421 143.512 390.671L143.383 389.718H156.824H170.266L170.153 388.316C169.357 378.468 160.727 371.993 151.24 374.124ZM269.94 374.211C257.9 377.187 254.141 392.355 263.302 400.997C269.177 406.539 278.865 406.213 284.508 400.282C285.45 399.292 285.481 399.344 285.473 401.889L285.466 404.188L287.411 404.253L289.355 404.318L289.341 389.382L289.327 374.446L287.402 374.51L285.478 374.575L285.46 377.099C285.45 378.487 285.427 379.623 285.409 379.623C285.391 379.623 284.566 378.826 283.578 377.851C280.018 374.344 274.915 372.982 269.94 374.211ZM305.818 374.184C304.372 374.702 302.662 375.954 301.364 377.447L300.349 378.613L300.344 376.538L300.339 374.463H298.432H296.525V389.382V404.3H298.405H300.285L300.403 395.607C300.468 390.826 300.63 386.24 300.763 385.417C301.618 380.126 304.827 376.837 308.415 377.574C309.093 377.714 309.676 377.745 309.71 377.644C309.744 377.543 310.122 376.915 310.551 376.249C311.508 374.765 311.511 374.857 310.49 374.365C309.254 373.77 307.199 373.69 305.818 374.184ZM357.309 374.081C353.891 375.051 351.71 377.95 351.715 381.513C351.721 385.664 353.247 387.533 359.298 390.802C364.026 393.356 365.322 395.532 363.869 398.472C362.12 402.01 357.234 402.311 353.816 399.09L352.667 398.008L351.518 399.303C350.114 400.886 350.114 400.887 351.432 402.048C357.278 407.197 366.054 405.223 367.852 398.355C368.981 394.043 366.753 390.469 361.092 387.51C355.615 384.647 354.056 382.448 355.588 379.744C357.195 376.907 360.835 376.655 364.135 379.152L365.577 380.243L366.729 379.076C368.104 377.684 368.088 377.609 366.127 376.156C363.377 374.118 359.988 373.321 357.309 374.081ZM80.918 377.624C86.999 378.748 91.005 384.624 90.186 391.218C88.757 402.724 72.939 405.076 67.97 394.52C63.759 385.575 71.225 375.832 80.918 377.624ZM119.428 377.631C130.154 379.9 132.194 394.932 122.461 399.975C116.154 403.244 108.686 400.427 106.085 393.8C102.609 384.941 110.246 375.688 119.428 377.631ZM157.464 377.716C160.345 378.395 163.023 380.173 164.329 382.272C164.775 382.988 166.046 385.929 166.046 386.243C166.046 386.304 161.042 386.353 154.926 386.353H143.806L143.955 385.848C145.754 379.729 151.453 376.299 157.464 377.716ZM277.963 378.135C289.701 382.562 287.346 400.302 274.888 401.299C265.213 402.074 258.757 391.266 263.911 382.924C266.789 378.265 272.84 376.203 277.963 378.135ZM331.807 377.709C338.069 379.036 342.001 385.455 340.605 392.074C338.321 402.904 323.613 404.709 318.66 394.766C314.116 385.645 321.858 375.601 331.807 377.709Z"/>
<path d="M176.363 381.821C176.358 378.258 178.539 375.359 181.957 374.389C184.636 373.629 188.025 374.426 190.775 376.464C192.736 377.917 192.752 377.992 191.377 379.384L190.225 380.551L188.783 379.46C185.483 376.963 181.843 377.215 180.236 380.052C178.704 382.756 180.263 384.955 185.74 387.818C191.401 390.777 193.629 394.351 192.5 398.663C190.702 405.531 181.926 407.505 176.08 402.356C174.762 401.195 174.762 401.194 176.166 399.611L177.315 398.316L178.464 399.398C181.882 402.619 186.768 402.318 188.517 398.78C189.97 395.84 188.674 393.664 183.946 391.11C177.895 387.841 176.369 385.972 176.363 381.821Z"/>
</mask>
<path fill-rule="evenodd" clip-rule="evenodd" d="M128.581 371.414V379.807L126.729 377.976C117.308 368.667 101.319 375.782 101.348 389.269C101.356 392.637 102.557 396.824 103.923 398.243C104.101 398.428 104.594 399.023 105.018 399.566C110.157 406.142 120.612 406.782 126.896 400.905C128.678 399.237 128.581 399.177 128.581 401.954V404.318L130.432 404.253L132.283 404.188L132.34 383.605L132.398 363.021H130.489H128.581V371.414ZM230.846 363.25C213.789 365.737 206.71 386.264 218.557 398.888C226.634 407.496 242.338 407.32 250.856 398.526C252.259 397.078 252.279 397.178 250.274 395.653L248.968 394.66L247.788 395.857C237.644 406.152 219.886 401.299 217.311 387.528C214.193 370.854 234.653 359.898 246.901 371.683C249.192 373.888 248.959 373.834 250.591 372.536C252.161 371.287 252.165 371.22 250.743 369.664C246.209 364.703 238.319 362.16 230.846 363.25ZM340.72 371.322C340.72 375.887 340.666 379.623 340.6 379.623C340.534 379.623 339.918 379.019 339.23 378.282C332.676 371.251 320.733 372.777 315.611 381.299C312.861 385.874 312.696 391.595 315.167 396.636C319.515 405.508 331.645 407.741 338.918 401.008C340.841 399.227 340.72 399.164 340.72 401.945V404.3H342.627H344.534V383.661V363.021H342.627H340.72V371.322ZM20 365.938V367.957H24.487H28.974V386.129V404.3H31.082H33.19L33.169 403.683C33.157 403.344 33.167 395.167 33.192 385.512L33.236 367.957H37.723H42.21V365.938V363.919H31.105H20V365.938ZM55.539 374.107C53.997 374.59 53.158 375.163 51.464 376.893L49.838 378.553V376.508V374.463H47.875H45.912V389.381V404.3H47.875H49.838L49.844 397.402C49.854 386.867 50.222 383.587 51.68 381.02C53.237 378.277 55.96 376.928 58.409 377.684C59.026 377.875 60.98 375.493 60.764 374.813C60.515 374.029 57.214 373.582 55.539 374.107ZM74.872 374.144C65.673 376.203 60.424 386.392 63.983 395.28C68.032 405.391 80.979 408.223 88.714 400.689C90.082 399.357 89.963 399.235 90.011 402.008L90.05 404.3H92.032H94.014L94.015 389.382L94.016 374.463H92.006C90.9 374.463 90.007 374.539 90.021 374.631C90.036 374.724 90.036 375.871 90.021 377.18L89.995 379.561L88.256 377.843C84.809 374.438 79.775 373.047 74.872 374.144ZM151.24 374.124C139.989 376.651 135.713 391.446 143.685 400.262C149.777 406.998 161.694 406.479 167.304 399.233C168.059 398.257 169.269 396.223 169.151 396.127C169.109 396.093 168.401 395.693 167.578 395.238L166.081 394.41L165.346 395.485C158.578 405.391 145.109 402.421 143.512 390.671L143.383 389.718H156.824H170.266L170.153 388.316C169.357 378.468 160.727 371.993 151.24 374.124ZM269.94 374.211C257.9 377.187 254.141 392.355 263.302 400.997C269.177 406.539 278.865 406.213 284.508 400.282C285.45 399.292 285.481 399.344 285.473 401.889L285.466 404.188L287.411 404.253L289.355 404.318L289.341 389.382L289.327 374.446L287.402 374.51L285.478 374.575L285.46 377.099C285.45 378.487 285.427 379.623 285.409 379.623C285.391 379.623 284.566 378.826 283.578 377.851C280.018 374.344 274.915 372.982 269.94 374.211ZM305.818 374.184C304.372 374.702 302.662 375.954 301.364 377.447L300.349 378.613L300.344 376.538L300.339 374.463H298.432H296.525V389.382V404.3H298.405H300.285L300.403 395.607C300.468 390.826 300.63 386.24 300.763 385.417C301.618 380.126 304.827 376.837 308.415 377.574C309.093 377.714 309.676 377.745 309.71 377.644C309.744 377.543 310.122 376.915 310.551 376.249C311.508 374.765 311.511 374.857 310.49 374.365C309.254 373.77 307.199 373.69 305.818 374.184ZM357.309 374.081C353.891 375.051 351.71 377.95 351.715 381.513C351.721 385.664 353.247 387.533 359.298 390.802C364.026 393.356 365.322 395.532 363.869 398.472C362.12 402.01 357.234 402.311 353.816 399.09L352.667 398.008L351.518 399.303C350.114 400.886 350.114 400.887 351.432 402.048C357.278 407.197 366.054 405.223 367.852 398.355C368.981 394.043 366.753 390.469 361.092 387.51C355.615 384.647 354.056 382.448 355.588 379.744C357.195 376.907 360.835 376.655 364.135 379.152L365.577 380.243L366.729 379.076C368.104 377.684 368.088 377.609 366.127 376.156C363.377 374.118 359.988 373.321 357.309 374.081ZM80.918 377.624C86.999 378.748 91.005 384.624 90.186 391.218C88.757 402.724 72.939 405.076 67.97 394.52C63.759 385.575 71.225 375.832 80.918 377.624ZM119.428 377.631C130.154 379.9 132.194 394.932 122.461 399.975C116.154 403.244 108.686 400.427 106.085 393.8C102.609 384.941 110.246 375.688 119.428 377.631ZM157.464 377.716C160.345 378.395 163.023 380.173 164.329 382.272C164.775 382.988 166.046 385.929 166.046 386.243C166.046 386.304 161.042 386.353 154.926 386.353H143.806L143.955 385.848C145.754 379.729 151.453 376.299 157.464 377.716ZM277.963 378.135C289.701 382.562 287.346 400.302 274.888 401.299C265.213 402.074 258.757 391.266 263.911 382.924C266.789 378.265 272.84 376.203 277.963 378.135ZM331.807 377.709C338.069 379.036 342.001 385.455 340.605 392.074C338.321 402.904 323.613 404.709 318.66 394.766C314.116 385.645 321.858 375.601 331.807 377.709Z" fill="#F26A50"/>
<path d="M176.363 381.821C176.358 378.258 178.539 375.359 181.957 374.389C184.636 373.629 188.025 374.426 190.775 376.464C192.736 377.917 192.752 377.992 191.377 379.384L190.225 380.551L188.783 379.46C185.483 376.963 181.843 377.215 180.236 380.052C178.704 382.756 180.263 384.955 185.74 387.818C191.401 390.777 193.629 394.351 192.5 398.663C190.702 405.531 181.926 407.505 176.08 402.356C174.762 401.195 174.762 401.194 176.166 399.611L177.315 398.316L178.464 399.398C181.882 402.619 186.768 402.318 188.517 398.78C189.97 395.84 188.674 393.664 183.946 391.11C177.895 387.841 176.369 385.972 176.363 381.821Z" fill="#F26A50"/>
<path fill-rule="evenodd" clip-rule="evenodd" d="M128.581 371.414V379.807L126.729 377.976C117.308 368.667 101.319 375.782 101.348 389.269C101.356 392.637 102.557 396.824 103.923 398.243C104.101 398.428 104.594 399.023 105.018 399.566C110.157 406.142 120.612 406.782 126.896 400.905C128.678 399.237 128.581 399.177 128.581 401.954V404.318L130.432 404.253L132.283 404.188L132.34 383.605L132.398 363.021H130.489H128.581V371.414ZM230.846 363.25C213.789 365.737 206.71 386.264 218.557 398.888C226.634 407.496 242.338 407.32 250.856 398.526C252.259 397.078 252.279 397.178 250.274 395.653L248.968 394.66L247.788 395.857C237.644 406.152 219.886 401.299 217.311 387.528C214.193 370.854 234.653 359.898 246.901 371.683C249.192 373.888 248.959 373.834 250.591 372.536C252.161 371.287 252.165 371.22 250.743 369.664C246.209 364.703 238.319 362.16 230.846 363.25ZM340.72 371.322C340.72 375.887 340.666 379.623 340.6 379.623C340.534 379.623 339.918 379.019 339.23 378.282C332.676 371.251 320.733 372.777 315.611 381.299C312.861 385.874 312.696 391.595 315.167 396.636C319.515 405.508 331.645 407.741 338.918 401.008C340.841 399.227 340.72 399.164 340.72 401.945V404.3H342.627H344.534V383.661V363.021H342.627H340.72V371.322ZM20 365.938V367.957H24.487H28.974V386.129V404.3H31.082H33.19L33.169 403.683C33.157 403.344 33.167 395.167 33.192 385.512L33.236 367.957H37.723H42.21V365.938V363.919H31.105H20V365.938ZM55.539 374.107C53.997 374.59 53.158 375.163 51.464 376.893L49.838 378.553V376.508V374.463H47.875H45.912V389.381V404.3H47.875H49.838L49.844 397.402C49.854 386.867 50.222 383.587 51.68 381.02C53.237 378.277 55.96 376.928 58.409 377.684C59.026 377.875 60.98 375.493 60.764 374.813C60.515 374.029 57.214 373.582 55.539 374.107ZM74.872 374.144C65.673 376.203 60.424 386.392 63.983 395.28C68.032 405.391 80.979 408.223 88.714 400.689C90.082 399.357 89.963 399.235 90.011 402.008L90.05 404.3H92.032H94.014L94.015 389.382L94.016 374.463H92.006C90.9 374.463 90.007 374.539 90.021 374.631C90.036 374.724 90.036 375.871 90.021 377.18L89.995 379.561L88.256 377.843C84.809 374.438 79.775 373.047 74.872 374.144ZM151.24 374.124C139.989 376.651 135.713 391.446 143.685 400.262C149.777 406.998 161.694 406.479 167.304 399.233C168.059 398.257 169.269 396.223 169.151 396.127C169.109 396.093 168.401 395.693 167.578 395.238L166.081 394.41L165.346 395.485C158.578 405.391 145.109 402.421 143.512 390.671L143.383 389.718H156.824H170.266L170.153 388.316C169.357 378.468 160.727 371.993 151.24 374.124ZM269.94 374.211C257.9 377.187 254.141 392.355 263.302 400.997C269.177 406.539 278.865 406.213 284.508 400.282C285.45 399.292 285.481 399.344 285.473 401.889L285.466 404.188L287.411 404.253L289.355 404.318L289.341 389.382L289.327 374.446L287.402 374.51L285.478 374.575L285.46 377.099C285.45 378.487 285.427 379.623 285.409 379.623C285.391 379.623 284.566 378.826 283.578 377.851C280.018 374.344 274.915 372.982 269.94 374.211ZM305.818 374.184C304.372 374.702 302.662 375.954 301.364 377.447L300.349 378.613L300.344 376.538L300.339 374.463H298.432H296.525V389.382V404.3H298.405H300.285L300.403 395.607C300.468 390.826 300.63 386.24 300.763 385.417C301.618 380.126 304.827 376.837 308.415 377.574C309.093 377.714 309.676 377.745 309.71 377.644C309.744 377.543 310.122 376.915 310.551 376.249C311.508 374.765 311.511 374.857 310.49 374.365C309.254 373.77 307.199 373.69 305.818 374.184ZM357.309 374.081C353.891 375.051 351.71 377.95 351.715 381.513C351.721 385.664 353.247 387.533 359.298 390.802C364.026 393.356 365.322 395.532 363.869 398.472C362.12 402.01 357.234 402.311 353.816 399.09L352.667 398.008L351.518 399.303C350.114 400.886 350.114 400.887 351.432 402.048C357.278 407.197 366.054 405.223 367.852 398.355C368.981 394.043 366.753 390.469 361.092 387.51C355.615 384.647 354.056 382.448 355.588 379.744C357.195 376.907 360.835 376.655 364.135 379.152L365.577 380.243L366.729 379.076C368.104 377.684 368.088 377.609 366.127 376.156C363.377 374.118 359.988 373.321 357.309 374.081ZM80.918 377.624C86.999 378.748 91.005 384.624 90.186 391.218C88.757 402.724 72.939 405.076 67.97 394.52C63.759 385.575 71.225 375.832 80.918 377.624ZM119.428 377.631C130.154 379.9 132.194 394.932 122.461 399.975C116.154 403.244 108.686 400.427 106.085 393.8C102.609 384.941 110.246 375.688 119.428 377.631ZM157.464 377.716C160.345 378.395 163.023 380.173 164.329 382.272C164.775 382.988 166.046 385.929 166.046 386.243C166.046 386.304 161.042 386.353 154.926 386.353H143.806L143.955 385.848C145.754 379.729 151.453 376.299 157.464 377.716ZM277.963 378.135C289.701 382.562 287.346 400.302 274.888 401.299C265.213 402.074 258.757 391.266 263.911 382.924C266.789 378.265 272.84 376.203 277.963 378.135ZM331.807 377.709C338.069 379.036 342.001 385.455 340.605 392.074C338.321 402.904 323.613 404.709 318.66 394.766C314.116 385.645 321.858 375.601 331.807 377.709Z" stroke="#9C2800" stroke-width="20" stroke-linejoin="round" mask="url(#path-21-outside-1_1_13)"/>
<path d="M176.363 381.821C176.358 378.258 178.539 375.359 181.957 374.389C184.636 373.629 188.025 374.426 190.775 376.464C192.736 377.917 192.752 377.992 191.377 379.384L190.225 380.551L188.783 379.46C185.483 376.963 181.843 377.215 180.236 380.052C178.704 382.756 180.263 384.955 185.74 387.818C191.401 390.777 193.629 394.351 192.5 398.663C190.702 405.531 181.926 407.505 176.08 402.356C174.762 401.195 174.762 401.194 176.166 399.611L177.315 398.316L178.464 399.398C181.882 402.619 186.768 402.318 188.517 398.78C189.97 395.84 188.674 393.664 183.946 391.11C177.895 387.841 176.369 385.972 176.363 381.821Z" stroke="#9C2800" stroke-width="20" stroke-linejoin="round" mask="url(#path-21-outside-1_1_13)"/>
<mask id="path-22-outside-2_1_13" maskUnits="userSpaceOnUse" x="19" y="362" width="351" height="45" fill="black">
<rect fill="white" x="19" y="362" width="351" height="45"/>
<path fill-rule="evenodd" clip-rule="evenodd" d="M128.581 371.414V379.807L126.729 377.976C117.308 368.667 101.319 375.782 101.348 389.269C101.356 392.637 102.557 396.824 103.923 398.243C104.101 398.428 104.594 399.023 105.018 399.566C110.157 406.142 120.612 406.782 126.896 400.905C128.678 399.237 128.581 399.177 128.581 401.954V404.318L130.432 404.253L132.283 404.188L132.34 383.605L132.398 363.021H130.489H128.581V371.414ZM230.846 363.25C213.789 365.737 206.71 386.264 218.557 398.888C226.634 407.496 242.338 407.32 250.856 398.526C252.259 397.078 252.279 397.178 250.274 395.653L248.968 394.66L247.788 395.857C237.644 406.152 219.886 401.299 217.311 387.528C214.193 370.854 234.653 359.898 246.901 371.683C249.192 373.888 248.959 373.834 250.591 372.536C252.161 371.287 252.165 371.22 250.743 369.664C246.209 364.703 238.319 362.16 230.846 363.25ZM340.72 371.322C340.72 375.887 340.666 379.623 340.6 379.623C340.534 379.623 339.918 379.019 339.23 378.282C332.676 371.251 320.733 372.777 315.611 381.299C312.861 385.874 312.696 391.595 315.167 396.636C319.515 405.508 331.645 407.741 338.918 401.008C340.841 399.227 340.72 399.164 340.72 401.945V404.3H342.627H344.534V383.661V363.021H342.627H340.72V371.322ZM20 365.938V367.957H24.487H28.974V386.129V404.3H31.082H33.19L33.169 403.683C33.157 403.344 33.167 395.167 33.192 385.512L33.236 367.957H37.723H42.21V365.938V363.919H31.105H20V365.938ZM55.539 374.107C53.997 374.59 53.158 375.163 51.464 376.893L49.838 378.553V376.508V374.463H47.875H45.912V389.381V404.3H47.875H49.838L49.844 397.402C49.854 386.867 50.222 383.587 51.68 381.02C53.237 378.277 55.96 376.928 58.409 377.684C59.026 377.875 60.98 375.493 60.764 374.813C60.515 374.029 57.214 373.582 55.539 374.107ZM74.872 374.144C65.673 376.203 60.424 386.392 63.983 395.28C68.032 405.391 80.979 408.223 88.714 400.689C90.082 399.357 89.963 399.235 90.011 402.008L90.05 404.3H92.032H94.014L94.015 389.382L94.016 374.463H92.006C90.9 374.463 90.007 374.539 90.021 374.631C90.036 374.724 90.036 375.871 90.021 377.18L89.995 379.561L88.256 377.843C84.809 374.438 79.775 373.047 74.872 374.144ZM151.24 374.124C139.989 376.651 135.713 391.446 143.685 400.262C149.777 406.998 161.694 406.479 167.304 399.233C168.059 398.257 169.269 396.223 169.151 396.127C169.109 396.093 168.401 395.693 167.578 395.238L166.081 394.41L165.346 395.485C158.578 405.391 145.109 402.421 143.512 390.671L143.383 389.718H156.824H170.266L170.153 388.316C169.357 378.468 160.727 371.993 151.24 374.124ZM269.94 374.211C257.9 377.187 254.141 392.355 263.302 400.997C269.177 406.539 278.865 406.213 284.508 400.282C285.45 399.292 285.481 399.344 285.473 401.889L285.466 404.188L287.411 404.253L289.355 404.318L289.341 389.382L289.327 374.446L287.402 374.51L285.478 374.575L285.46 377.099C285.45 378.487 285.427 379.623 285.409 379.623C285.391 379.623 284.566 378.826 283.578 377.851C280.018 374.344 274.915 372.982 269.94 374.211ZM305.818 374.184C304.372 374.702 302.662 375.954 301.364 377.447L300.349 378.613L300.344 376.538L300.339 374.463H298.432H296.525V389.382V404.3H298.405H300.285L300.403 395.607C300.468 390.826 300.63 386.24 300.763 385.417C301.618 380.126 304.827 376.837 308.415 377.574C309.093 377.714 309.676 377.745 309.71 377.644C309.744 377.543 310.122 376.915 310.551 376.249C311.508 374.765 311.511 374.857 310.49 374.365C309.254 373.77 307.199 373.69 305.818 374.184ZM357.309 374.081C353.891 375.051 351.71 377.95 351.715 381.513C351.721 385.664 353.247 387.533 359.298 390.802C364.026 393.356 365.322 395.532 363.869 398.472C362.12 402.01 357.234 402.311 353.816 399.09L352.667 398.008L351.518 399.303C350.114 400.886 350.114 400.887 351.432 402.048C357.278 407.197 366.054 405.223 367.852 398.355C368.981 394.043 366.753 390.469 361.092 387.51C355.615 384.647 354.056 382.448 355.588 379.744C357.195 376.907 360.835 376.655 364.135 379.152L365.577 380.243L366.729 379.076C368.104 377.684 368.088 377.609 366.127 376.156C363.377 374.118 359.988 373.321 357.309 374.081ZM80.918 377.624C86.999 378.748 91.005 384.624 90.186 391.218C88.757 402.724 72.939 405.076 67.97 394.52C63.759 385.575 71.225 375.832 80.918 377.624ZM119.428 377.631C130.154 379.9 132.194 394.932 122.461 399.975C116.154 403.244 108.686 400.427 106.085 393.8C102.609 384.941 110.246 375.688 119.428 377.631ZM157.464 377.716C160.345 378.395 163.023 380.173 164.329 382.272C164.775 382.988 166.046 385.929 166.046 386.243C166.046 386.304 161.042 386.353 154.926 386.353H143.806L143.955 385.848C145.754 379.729 151.453 376.299 157.464 377.716ZM277.963 378.135C289.701 382.562 287.346 400.302 274.888 401.299C265.213 402.074 258.757 391.266 263.911 382.924C266.789 378.265 272.84 376.203 277.963 378.135ZM331.807 377.709C338.069 379.036 342.001 385.455 340.605 392.074C338.321 402.904 323.613 404.709 318.66 394.766C314.116 385.645 321.858 375.601 331.807 377.709Z"/>
<path d="M176.363 381.821C176.358 378.258 178.539 375.359 181.957 374.389C184.636 373.629 188.025 374.426 190.775 376.464C192.736 377.917 192.752 377.992 191.377 379.384L190.225 380.551L188.783 379.46C185.483 376.963 181.843 377.215 180.236 380.052C178.704 382.756 180.263 384.955 185.74 387.818C191.401 390.777 193.629 394.351 192.5 398.663C190.702 405.531 181.926 407.505 176.08 402.356C174.762 401.195 174.762 401.194 176.166 399.611L177.315 398.316L178.464 399.398C181.882 402.619 186.768 402.318 188.517 398.78C189.97 395.84 188.674 393.664 183.946 391.11C177.895 387.841 176.369 385.972 176.363 381.821Z"/>
</mask>
<path fill-rule="evenodd" clip-rule="evenodd" d="M128.581 371.414V379.807L126.729 377.976C117.308 368.667 101.319 375.782 101.348 389.269C101.356 392.637 102.557 396.824 103.923 398.243C104.101 398.428 104.594 399.023 105.018 399.566C110.157 406.142 120.612 406.782 126.896 400.905C128.678 399.237 128.581 399.177 128.581 401.954V404.318L130.432 404.253L132.283 404.188L132.34 383.605L132.398 363.021H130.489H128.581V371.414ZM230.846 363.25C213.789 365.737 206.71 386.264 218.557 398.888C226.634 407.496 242.338 407.32 250.856 398.526C252.259 397.078 252.279 397.178 250.274 395.653L248.968 394.66L247.788 395.857C237.644 406.152 219.886 401.299 217.311 387.528C214.193 370.854 234.653 359.898 246.901 371.683C249.192 373.888 248.959 373.834 250.591 372.536C252.161 371.287 252.165 371.22 250.743 369.664C246.209 364.703 238.319 362.16 230.846 363.25ZM340.72 371.322C340.72 375.887 340.666 379.623 340.6 379.623C340.534 379.623 339.918 379.019 339.23 378.282C332.676 371.251 320.733 372.777 315.611 381.299C312.861 385.874 312.696 391.595 315.167 396.636C319.515 405.508 331.645 407.741 338.918 401.008C340.841 399.227 340.72 399.164 340.72 401.945V404.3H342.627H344.534V383.661V363.021H342.627H340.72V371.322ZM20 365.938V367.957H24.487H28.974V386.129V404.3H31.082H33.19L33.169 403.683C33.157 403.344 33.167 395.167 33.192 385.512L33.236 367.957H37.723H42.21V365.938V363.919H31.105H20V365.938ZM55.539 374.107C53.997 374.59 53.158 375.163 51.464 376.893L49.838 378.553V376.508V374.463H47.875H45.912V389.381V404.3H47.875H49.838L49.844 397.402C49.854 386.867 50.222 383.587 51.68 381.02C53.237 378.277 55.96 376.928 58.409 377.684C59.026 377.875 60.98 375.493 60.764 374.813C60.515 374.029 57.214 373.582 55.539 374.107ZM74.872 374.144C65.673 376.203 60.424 386.392 63.983 395.28C68.032 405.391 80.979 408.223 88.714 400.689C90.082 399.357 89.963 399.235 90.011 402.008L90.05 404.3H92.032H94.014L94.015 389.382L94.016 374.463H92.006C90.9 374.463 90.007 374.539 90.021 374.631C90.036 374.724 90.036 375.871 90.021 377.18L89.995 379.561L88.256 377.843C84.809 374.438 79.775 373.047 74.872 374.144ZM151.24 374.124C139.989 376.651 135.713 391.446 143.685 400.262C149.777 406.998 161.694 406.479 167.304 399.233C168.059 398.257 169.269 396.223 169.151 396.127C169.109 396.093 168.401 395.693 167.578 395.238L166.081 394.41L165.346 395.485C158.578 405.391 145.109 402.421 143.512 390.671L143.383 389.718H156.824H170.266L170.153 388.316C169.357 378.468 160.727 371.993 151.24 374.124ZM269.94 374.211C257.9 377.187 254.141 392.355 263.302 400.997C269.177 406.539 278.865 406.213 284.508 400.282C285.45 399.292 285.481 399.344 285.473 401.889L285.466 404.188L287.411 404.253L289.355 404.318L289.341 389.382L289.327 374.446L287.402 374.51L285.478 374.575L285.46 377.099C285.45 378.487 285.427 379.623 285.409 379.623C285.391 379.623 284.566 378.826 283.578 377.851C280.018 374.344 274.915 372.982 269.94 374.211ZM305.818 374.184C304.372 374.702 302.662 375.954 301.364 377.447L300.349 378.613L300.344 376.538L300.339 374.463H298.432H296.525V389.382V404.3H298.405H300.285L300.403 395.607C300.468 390.826 300.63 386.24 300.763 385.417C301.618 380.126 304.827 376.837 308.415 377.574C309.093 377.714 309.676 377.745 309.71 377.644C309.744 377.543 310.122 376.915 310.551 376.249C311.508 374.765 311.511 374.857 310.49 374.365C309.254 373.77 307.199 373.69 305.818 374.184ZM357.309 374.081C353.891 375.051 351.71 377.95 351.715 381.513C351.721 385.664 353.247 387.533 359.298 390.802C364.026 393.356 365.322 395.532 363.869 398.472C362.12 402.01 357.234 402.311 353.816 399.09L352.667 398.008L351.518 399.303C350.114 400.886 350.114 400.887 351.432 402.048C357.278 407.197 366.054 405.223 367.852 398.355C368.981 394.043 366.753 390.469 361.092 387.51C355.615 384.647 354.056 382.448 355.588 379.744C357.195 376.907 360.835 376.655 364.135 379.152L365.577 380.243L366.729 379.076C368.104 377.684 368.088 377.609 366.127 376.156C363.377 374.118 359.988 373.321 357.309 374.081ZM80.918 377.624C86.999 378.748 91.005 384.624 90.186 391.218C88.757 402.724 72.939 405.076 67.97 394.52C63.759 385.575 71.225 375.832 80.918 377.624ZM119.428 377.631C130.154 379.9 132.194 394.932 122.461 399.975C116.154 403.244 108.686 400.427 106.085 393.8C102.609 384.941 110.246 375.688 119.428 377.631ZM157.464 377.716C160.345 378.395 163.023 380.173 164.329 382.272C164.775 382.988 166.046 385.929 166.046 386.243C166.046 386.304 161.042 386.353 154.926 386.353H143.806L143.955 385.848C145.754 379.729 151.453 376.299 157.464 377.716ZM277.963 378.135C289.701 382.562 287.346 400.302 274.888 401.299C265.213 402.074 258.757 391.266 263.911 382.924C266.789 378.265 272.84 376.203 277.963 378.135ZM331.807 377.709C338.069 379.036 342.001 385.455 340.605 392.074C338.321 402.904 323.613 404.709 318.66 394.766C314.116 385.645 321.858 375.601 331.807 377.709Z" fill="#F26A50"/>
<path d="M176.363 381.821C176.358 378.258 178.539 375.359 181.957 374.389C184.636 373.629 188.025 374.426 190.775 376.464C192.736 377.917 192.752 377.992 191.377 379.384L190.225 380.551L188.783 379.46C185.483 376.963 181.843 377.215 180.236 380.052C178.704 382.756 180.263 384.955 185.74 387.818C191.401 390.777 193.629 394.351 192.5 398.663C190.702 405.531 181.926 407.505 176.08 402.356C174.762 401.195 174.762 401.194 176.166 399.611L177.315 398.316L178.464 399.398C181.882 402.619 186.768 402.318 188.517 398.78C189.97 395.84 188.674 393.664 183.946 391.11C177.895 387.841 176.369 385.972 176.363 381.821Z" fill="#F26A50"/>
<path fill-rule="evenodd" clip-rule="evenodd" d="M128.581 371.414V379.807L126.729 377.976C117.308 368.667 101.319 375.782 101.348 389.269C101.356 392.637 102.557 396.824 103.923 398.243C104.101 398.428 104.594 399.023 105.018 399.566C110.157 406.142 120.612 406.782 126.896 400.905C128.678 399.237 128.581 399.177 128.581 401.954V404.318L130.432 404.253L132.283 404.188L132.34 383.605L132.398 363.021H130.489H128.581V371.414ZM230.846 363.25C213.789 365.737 206.71 386.264 218.557 398.888C226.634 407.496 242.338 407.32 250.856 398.526C252.259 397.078 252.279 397.178 250.274 395.653L248.968 394.66L247.788 395.857C237.644 406.152 219.886 401.299 217.311 387.528C214.193 370.854 234.653 359.898 246.901 371.683C249.192 373.888 248.959 373.834 250.591 372.536C252.161 371.287 252.165 371.22 250.743 369.664C246.209 364.703 238.319 362.16 230.846 363.25ZM340.72 371.322C340.72 375.887 340.666 379.623 340.6 379.623C340.534 379.623 339.918 379.019 339.23 378.282C332.676 371.251 320.733 372.777 315.611 381.299C312.861 385.874 312.696 391.595 315.167 396.636C319.515 405.508 331.645 407.741 338.918 401.008C340.841 399.227 340.72 399.164 340.72 401.945V404.3H342.627H344.534V383.661V363.021H342.627H340.72V371.322ZM20 365.938V367.957H24.487H28.974V386.129V404.3H31.082H33.19L33.169 403.683C33.157 403.344 33.167 395.167 33.192 385.512L33.236 367.957H37.723H42.21V365.938V363.919H31.105H20V365.938ZM55.539 374.107C53.997 374.59 53.158 375.163 51.464 376.893L49.838 378.553V376.508V374.463H47.875H45.912V389.381V404.3H47.875H49.838L49.844 397.402C49.854 386.867 50.222 383.587 51.68 381.02C53.237 378.277 55.96 376.928 58.409 377.684C59.026 377.875 60.98 375.493 60.764 374.813C60.515 374.029 57.214 373.582 55.539 374.107ZM74.872 374.144C65.673 376.203 60.424 386.392 63.983 395.28C68.032 405.391 80.979 408.223 88.714 400.689C90.082 399.357 89.963 399.235 90.011 402.008L90.05 404.3H92.032H94.014L94.015 389.382L94.016 374.463H92.006C90.9 374.463 90.007 374.539 90.021 374.631C90.036 374.724 90.036 375.871 90.021 377.18L89.995 379.561L88.256 377.843C84.809 374.438 79.775 373.047 74.872 374.144ZM151.24 374.124C139.989 376.651 135.713 391.446 143.685 400.262C149.777 406.998 161.694 406.479 167.304 399.233C168.059 398.257 169.269 396.223 169.151 396.127C169.109 396.093 168.401 395.693 167.578 395.238L166.081 394.41L165.346 395.485C158.578 405.391 145.109 402.421 143.512 390.671L143.383 389.718H156.824H170.266L170.153 388.316C169.357 378.468 160.727 371.993 151.24 374.124ZM269.94 374.211C257.9 377.187 254.141 392.355 263.302 400.997C269.177 406.539 278.865 406.213 284.508 400.282C285.45 399.292 285.481 399.344 285.473 401.889L285.466 404.188L287.411 404.253L289.355 404.318L289.341 389.382L289.327 374.446L287.402 374.51L285.478 374.575L285.46 377.099C285.45 378.487 285.427 379.623 285.409 379.623C285.391 379.623 284.566 378.826 283.578 377.851C280.018 374.344 274.915 372.982 269.94 374.211ZM305.818 374.184C304.372 374.702 302.662 375.954 301.364 377.447L300.349 378.613L300.344 376.538L300.339 374.463H298.432H296.525V389.382V404.3H298.405H300.285L300.403 395.607C300.468 390.826 300.63 386.24 300.763 385.417C301.618 380.126 304.827 376.837 308.415 377.574C309.093 377.714 309.676 377.745 309.71 377.644C309.744 377.543 310.122 376.915 310.551 376.249C311.508 374.765 311.511 374.857 310.49 374.365C309.254 373.77 307.199 373.69 305.818 374.184ZM357.309 374.081C353.891 375.051 351.71 377.95 351.715 381.513C351.721 385.664 353.247 387.533 359.298 390.802C364.026 393.356 365.322 395.532 363.869 398.472C362.12 402.01 357.234 402.311 353.816 399.09L352.667 398.008L351.518 399.303C350.114 400.886 350.114 400.887 351.432 402.048C357.278 407.197 366.054 405.223 367.852 398.355C368.981 394.043 366.753 390.469 361.092 387.51C355.615 384.647 354.056 382.448 355.588 379.744C357.195 376.907 360.835 376.655 364.135 379.152L365.577 380.243L366.729 379.076C368.104 377.684 368.088 377.609 366.127 376.156C363.377 374.118 359.988 373.321 357.309 374.081ZM80.918 377.624C86.999 378.748 91.005 384.624 90.186 391.218C88.757 402.724 72.939 405.076 67.97 394.52C63.759 385.575 71.225 375.832 80.918 377.624ZM119.428 377.631C130.154 379.9 132.194 394.932 122.461 399.975C116.154 403.244 108.686 400.427 106.085 393.8C102.609 384.941 110.246 375.688 119.428 377.631ZM157.464 377.716C160.345 378.395 163.023 380.173 164.329 382.272C164.775 382.988 166.046 385.929 166.046 386.243C166.046 386.304 161.042 386.353 154.926 386.353H143.806L143.955 385.848C145.754 379.729 151.453 376.299 157.464 377.716ZM277.963 378.135C289.701 382.562 287.346 400.302 274.888 401.299C265.213 402.074 258.757 391.266 263.911 382.924C266.789 378.265 272.84 376.203 277.963 378.135ZM331.807 377.709C338.069 379.036 342.001 385.455 340.605 392.074C338.321 402.904 323.613 404.709 318.66 394.766C314.116 385.645 321.858 375.601 331.807 377.709Z" stroke="#F26A50" stroke-width="2" stroke-linejoin="round" mask="url(#path-22-outside-2_1_13)"/>
<path d="M176.363 381.821C176.358 378.258 178.539 375.359 181.957 374.389C184.636 373.629 188.025 374.426 190.775 376.464C192.736 377.917 192.752 377.992 191.377 379.384L190.225 380.551L188.783 379.46C185.483 376.963 181.843 377.215 180.236 380.052C178.704 382.756 180.263 384.955 185.74 387.818C191.401 390.777 193.629 394.351 192.5 398.663C190.702 405.531 181.926 407.505 176.08 402.356C174.762 401.195 174.762 401.194 176.166 399.611L177.315 398.316L178.464 399.398C181.882 402.619 186.768 402.318 188.517 398.78C189.97 395.84 188.674 393.664 183.946 391.11C177.895 387.841 176.369 385.972 176.363 381.821Z" stroke="#F26A50" stroke-width="2" stroke-linejoin="round" mask="url(#path-22-outside-2_1_13)"/>
</svg>
