<svg width="578" height="402" viewBox="0 0 578 402" fill="none" xmlns="http://www.w3.org/2000/svg">
<path d="M515.384 103.1V72.782H543.42V103.1H515.384ZM516.362 315V148.74H542.768V315H516.362Z" fill="#E4E4E4"/>
<path d="M32.6 315V90.712H60.636V287.942H165.282V315H32.6ZM269.63 317.608C246.375 317.608 229.749 315.326 219.752 310.762C209.755 305.981 203.343 298.048 200.518 286.964C197.91 275.663 196.606 257.298 196.606 231.87C196.606 206.442 197.91 188.186 200.518 177.102C203.343 165.801 209.755 157.868 219.752 153.304C229.749 148.523 246.375 146.132 269.63 146.132C292.667 146.132 309.185 148.523 319.182 153.304C329.179 157.868 335.482 165.801 338.09 177.102C340.915 188.186 342.328 206.442 342.328 231.87C342.328 257.298 340.915 275.663 338.09 286.964C335.482 298.048 329.179 305.981 319.182 310.762C309.185 315.326 292.667 317.608 269.63 317.608ZM269.63 293.484C285.495 293.484 296.471 292.071 302.556 289.246C308.641 286.421 312.336 281.313 313.64 273.924C315.161 266.317 315.922 252.299 315.922 231.87C315.922 211.441 315.161 197.531 313.64 190.142C312.336 182.535 308.641 177.319 302.556 174.494C296.471 171.669 285.495 170.256 269.63 170.256C253.765 170.256 242.681 171.669 236.378 174.494C230.293 177.319 226.489 182.535 224.968 190.142C223.664 197.531 223.012 211.441 223.012 231.87C223.012 252.299 223.664 266.317 224.968 273.924C226.489 281.313 230.293 286.421 236.378 289.246C242.681 292.071 253.765 293.484 269.63 293.484Z" fill="#E4E4E4"/>
<path d="M446.5 149L377 231L446 315H477L410 231L475.5 149H446.5Z" fill="#E4E4E4"/>
</svg>
