<svg width="1080" height="600" viewBox="0 0 1080 600" fill="none" xmlns="http://www.w3.org/2000/svg">
<rect width="1080" height="600" fill="#4D4D4F"/>
<path d="M337.602 356.155C328.406 359.221 319.398 361.519 301.574 361.519C265.545 361.519 246 329.527 246 290.639C246 255.773 257.685 228.381 296.976 228.381C325.911 228.381 336.261 243.512 337.602 256.54H318.824C317.863 250.6 314.607 236.999 295.822 236.999C275.509 236.999 264.778 256.35 264.778 285.659C264.778 312.862 270.144 352.898 312.117 352.898C323.422 352.898 335.307 348.875 337.602 348.108V356.155Z" fill="white"/>
<path d="M379.962 252.324C379.962 239.107 374.024 239.684 360.797 238.15V234.895L396.638 230.489V335.081C396.638 350.789 396.638 351.94 412.347 351.94H429.403C443.778 351.94 444.35 343.896 445.885 331.059H451.832L450.871 359.411H379.962V252.324Z" fill="white"/>
<path d="M502.807 309.219H546.316L524.655 250.794L502.807 309.219ZM512.584 253.092C513.925 249.643 515.459 245.814 515.459 242.749C515.459 237.767 490.667 236.041 481.085 233.745V230.489H533.664L583.111 359.412H564.52L548.418 316.69H500.125L484.99 359.412H472.911L512.584 253.092Z" fill="white"/>
<path d="M679.891 244.854C673.952 242.173 661.687 236.999 648.273 236.999C634.474 236.999 625.086 244.471 625.086 256.156C625.086 286.424 688.327 282.594 688.327 324.545C688.327 350.982 666.479 361.519 641.754 361.519C628.341 361.519 614.354 358.453 611.091 357.687V344.47C618.185 347.918 631.411 352.898 644.437 352.898C661.305 352.898 671.269 344.852 671.269 328.569C671.269 296.196 609.749 300.985 609.749 260.756C609.749 239.874 626.04 228.381 651.53 228.381C663.988 228.381 674.339 230.295 679.891 231.447V244.854Z" fill="white"/>
<path d="M791.431 244.854C785.492 242.173 773.227 236.999 759.814 236.999C746.015 236.999 736.626 244.471 736.626 256.156C736.626 286.424 799.867 282.594 799.867 324.545C799.867 350.982 778.019 361.519 753.295 361.519C739.881 361.519 725.895 358.453 722.633 357.687V344.47C729.726 347.918 742.951 352.898 755.977 352.898C772.847 352.898 782.811 344.852 782.811 328.569C782.811 296.196 721.29 300.985 721.29 260.756C721.29 239.874 737.58 228.381 763.07 228.381C775.53 228.381 785.88 230.295 791.431 231.447V244.854Z" fill="white"/>
<path d="M858.387 196.678H835.204C827.435 196.678 821.164 196.678 819.662 209.487H815.71L816.392 190H868.913V195.178L840.258 274.216H831.548L858.387 196.678Z" fill="#00ADEF"/>
<path d="M260.85 396.302C260.85 395.183 261.071 394.071 261.518 392.961C261.965 391.853 262.621 390.856 263.482 389.974C264.347 389.092 265.405 388.381 266.654 387.838C267.904 387.296 269.324 387.026 270.912 387.026C272.797 387.026 274.414 387.401 275.764 388.152C277.113 388.905 278.117 389.881 278.77 391.086L276.658 392.293C276.341 391.697 275.957 391.199 275.511 390.801C275.064 390.397 274.578 390.074 274.053 389.83C273.526 389.585 272.984 389.411 272.429 389.303C271.874 389.2 271.328 389.149 270.793 389.149C269.622 389.149 268.583 389.362 267.683 389.789C266.778 390.218 266.019 390.776 265.405 391.468C264.789 392.157 264.329 392.936 264.019 393.798C263.713 394.664 263.559 395.534 263.559 396.407C263.559 397.386 263.741 398.317 264.108 399.199C264.477 400.081 264.987 400.862 265.642 401.544C266.297 402.225 267.072 402.765 267.966 403.167C268.858 403.571 269.828 403.77 270.883 403.77C271.438 403.77 272.009 403.71 272.592 403.587C273.18 403.466 273.739 403.267 274.277 402.997C274.81 402.727 275.314 402.387 275.777 401.976C276.245 401.565 276.627 401.072 276.926 400.495L279.158 401.57C278.82 402.267 278.35 402.883 277.745 403.418C277.139 403.95 276.455 404.402 275.691 404.766C274.924 405.134 274.116 405.413 273.265 405.607C272.41 405.797 271.575 405.894 270.761 405.894C269.313 405.894 267.984 405.615 266.773 405.055C265.563 404.496 264.516 403.765 263.634 402.867C262.75 401.967 262.064 400.947 261.58 399.802C261.091 398.656 260.85 397.49 260.85 396.302Z" fill="#9A9A99"/>
<path d="M322.386 396.433C322.386 397.377 322.557 398.289 322.906 399.171C323.252 400.055 323.745 400.836 324.381 401.516C325.015 402.197 325.779 402.738 326.673 403.142C327.566 403.546 328.556 403.745 329.65 403.745C330.779 403.745 331.793 403.531 332.685 403.103C333.579 402.676 334.338 402.116 334.964 401.426C335.587 400.737 336.067 399.954 336.394 399.08C336.72 398.207 336.883 397.324 336.883 396.433C336.883 395.489 336.71 394.576 336.362 393.694C336.016 392.811 335.519 392.036 334.874 391.364C334.229 390.69 333.465 390.153 332.583 389.751C331.7 389.349 330.722 389.148 329.65 389.148C328.517 389.148 327.505 389.358 326.611 389.777C325.717 390.195 324.96 390.746 324.336 391.429C323.71 392.109 323.228 392.887 322.89 393.76C322.555 394.634 322.386 395.526 322.386 396.433ZM329.619 405.866C328.132 405.866 326.775 405.601 325.554 405.069C324.336 404.536 323.286 403.829 322.415 402.944C321.542 402.062 320.865 401.055 320.391 399.918C319.914 398.782 319.676 397.621 319.676 396.433C319.676 395.193 319.929 394.005 320.435 392.868C320.943 391.733 321.64 390.729 322.534 389.854C323.426 388.982 324.484 388.287 325.706 387.774C326.926 387.256 328.251 386.998 329.68 386.998C331.169 386.998 332.516 387.276 333.727 387.825C334.937 388.376 335.982 389.094 336.853 389.985C337.729 390.877 338.402 391.886 338.878 393.013C339.354 394.141 339.591 395.29 339.591 396.46C339.591 397.701 339.341 398.887 338.834 400.022C338.329 401.16 337.633 402.158 336.75 403.023C335.868 403.889 334.815 404.581 333.595 405.094C332.373 405.61 331.049 405.866 329.619 405.866Z" fill="#9A9A99"/>
<path d="M384.725 391.532V405.737H382.044V387.131H384.129L397.229 401.623V387.156H399.909V405.737H397.647L384.725 391.532Z" fill="#9A9A99"/>
<path d="M456.147 391.035C455.909 390.79 455.593 390.554 455.196 390.327C454.797 390.099 454.35 389.895 453.856 389.711C453.36 389.528 452.817 389.38 452.234 389.266C451.646 389.152 451.036 389.096 450.401 389.096C448.755 389.096 447.549 389.367 446.785 389.909C446.02 390.449 445.638 391.19 445.638 392.135C445.638 392.643 445.747 393.061 445.966 393.394C446.183 393.724 446.527 394.009 446.992 394.246C447.46 394.48 448.038 394.685 448.734 394.86C449.429 395.037 450.253 395.218 451.205 395.412C452.297 395.62 453.285 395.861 454.168 396.132C455.05 396.402 455.807 396.739 456.431 397.14C457.057 397.542 457.533 398.031 457.86 398.607C458.188 399.185 458.352 399.893 458.352 400.731C458.352 401.623 458.151 402.395 457.754 403.049C457.358 403.705 456.816 404.248 456.132 404.675C455.447 405.103 454.639 405.418 453.706 405.618C452.772 405.82 451.76 405.919 450.669 405.919C449.043 405.919 447.499 405.697 446.041 405.253C444.582 404.806 443.258 404.155 442.065 403.298L443.347 401.306C443.664 401.604 444.077 401.902 444.582 402.199C445.086 402.496 445.662 402.763 446.308 402.998C446.952 403.234 447.648 403.426 448.392 403.574C449.135 403.725 449.915 403.796 450.729 403.796C452.239 403.796 453.409 403.561 454.242 403.088C455.078 402.619 455.492 401.909 455.492 400.967C455.492 400.444 455.36 400.001 455.09 399.642C454.824 399.285 454.429 398.976 453.914 398.712C453.399 398.451 452.759 398.218 451.995 398.019C451.232 397.82 450.362 397.613 449.389 397.402C448.319 397.177 447.375 396.93 446.561 396.67C445.747 396.408 445.068 396.092 444.52 395.725C443.976 395.358 443.563 394.913 443.286 394.39C443.009 393.863 442.869 393.236 442.869 392.503C442.869 391.611 443.059 390.826 443.435 390.144C443.812 389.462 444.338 388.885 445.012 388.413C445.689 387.944 446.493 387.589 447.426 387.352C448.359 387.117 449.371 386.998 450.463 386.998C451.889 386.998 453.179 387.191 454.332 387.574C455.482 387.958 456.504 388.476 457.398 389.123L456.147 391.035Z" fill="#9A9A99"/>
<path d="M509.288 403.745C510.52 403.745 511.54 403.535 512.354 403.117C513.168 402.695 513.819 402.15 514.306 401.479C514.792 400.806 515.135 400.037 515.333 399.171C515.531 398.307 515.629 397.428 515.629 396.537V387.13H518.308V396.537C518.308 397.795 518.145 398.989 517.817 400.114C517.489 401.241 516.969 402.233 516.256 403.088C515.542 403.944 514.614 404.622 513.472 405.12C512.33 405.618 510.946 405.866 509.32 405.866C507.632 405.866 506.212 405.606 505.063 405.081C503.909 404.557 502.982 403.864 502.279 402.998C501.573 402.133 501.066 401.137 500.76 400.011C500.453 398.883 500.299 397.726 500.299 396.537V387.13H502.977V396.537C502.977 397.462 503.083 398.359 503.292 399.225C503.498 400.089 503.846 400.853 504.332 401.516C504.819 402.182 505.465 402.719 506.267 403.128C507.071 403.54 508.078 403.745 509.288 403.745Z" fill="#9A9A99"/>
<path d="M561.745 405.737V387.131H564.425V403.639H576.215V405.737H561.745Z" fill="#9A9A99"/>
<path d="M630.013 389.227H622.717V405.737H620.038V389.227H612.746V387.13H630.013V389.227Z" fill="#9A9A99"/>
<path d="M671.78 387.157H674.461V405.738H671.78V387.157Z" fill="#9A9A99"/>
<path d="M720.907 391.532V405.737H718.226V387.131H720.312L733.411 401.623V387.156H736.091V405.737H733.828L720.907 391.532Z" fill="#9A9A99"/>
<path d="M794.827 403.221C792.962 404.985 790.817 405.867 788.398 405.867C786.989 405.867 785.682 405.595 784.482 405.054C783.282 404.512 782.243 403.8 781.371 402.919C780.497 402.037 779.81 401.027 779.302 399.892C778.798 398.756 778.544 397.586 778.544 396.381C778.544 395.122 778.793 393.931 779.287 392.803C779.783 391.676 780.468 390.682 781.342 389.816C782.215 388.95 783.256 388.266 784.467 387.759C785.678 387.253 786.989 386.998 788.398 386.998C790.443 386.998 792.123 387.375 793.441 388.127C794.764 388.879 795.772 389.855 796.467 391.06L794.413 392.319C793.776 391.236 792.933 390.432 791.88 389.909C790.828 389.382 789.647 389.123 788.339 389.123C787.265 389.123 786.293 389.328 785.42 389.737C784.546 390.147 783.804 390.691 783.188 391.363C782.571 392.035 782.096 392.812 781.757 393.695C781.421 394.576 781.253 395.49 781.253 396.432C781.253 397.428 781.441 398.369 781.818 399.25C782.193 400.132 782.712 400.91 783.367 401.584C784.02 402.256 784.795 402.784 785.687 403.168C786.581 403.552 787.554 403.744 788.606 403.744C790.908 403.744 792.983 402.764 794.827 400.808V398.24H790.273V396.461H797.09V405.737H794.827V403.221Z" fill="#9A9A99"/>
</svg>
