<svg width="1080" height="600" viewBox="0 0 1080 600" fill="none" xmlns="http://www.w3.org/2000/svg">
<rect width="1080" height="600" fill="#2B2B2B"/>
<g clip-path="url(#clip0_5_3336)">
<path d="M974.25 196H104.75C89.4241 196 77 208.412 77 223.723V375.277C77 390.588 89.4241 403 104.75 403H974.25C989.576 403 1002 390.588 1002 375.277V223.723C1002 208.412 989.576 196 974.25 196Z" fill="#2B2B2B"/>
<g filter="url(#filter0_d_5_3336)">
<path d="M186.613 338.313V280.325H196.556V338.313H186.613ZM162.562 338.313V329.418H187.769V338.313H162.562ZM195.4 338.313V329.418H216.097V338.313H195.4ZM166.031 285.985V277.09H196.556V285.985H166.031ZM191.064 265.539C188.983 265.539 187.191 264.808 185.688 263.344C184.184 261.843 183.433 260.052 183.433 257.973C183.433 255.855 184.184 254.065 185.688 252.602C187.191 251.1 188.983 250.349 191.064 250.349C193.184 250.349 194.976 251.1 196.441 252.602C197.944 254.065 198.695 255.855 198.695 257.973C198.695 260.052 197.944 261.843 196.441 263.344C194.976 264.808 193.184 265.539 191.064 265.539ZM274.661 338.313V291.53C274.661 286.409 272.676 283.848 268.706 283.848C263.772 283.848 261.306 287.063 261.306 293.493L257.144 284.714H261.653C261.962 282.135 263.003 280.036 264.775 278.419C266.586 276.763 269.13 275.935 272.406 275.935C276.608 275.935 279.69 277.09 281.656 279.401C283.66 281.711 284.663 285.369 284.663 290.374V338.313H274.661ZM229.163 338.313V277.09H237.95L239.164 290.028V338.313H229.163ZM252.519 338.313V290.374C252.519 286.023 250.495 283.848 246.449 283.848C241.592 283.848 239.164 287.063 239.164 293.493L235.58 284.714H239.395C240.166 278.862 243.866 275.935 250.495 275.935C253.925 275.935 256.585 277.033 258.474 279.227C260.362 281.422 261.306 284.753 261.306 289.219V338.313H252.519ZM302.585 365.92L302.123 356.737L321.2 356.159C328.023 355.928 332.994 354.022 336.115 350.441C339.237 346.899 340.799 341.662 340.799 334.732V290.432L341.781 277.09H350.8V332.883C350.8 343.78 348.352 351.828 343.457 357.026C338.562 362.224 330.759 364.996 320.044 365.343L302.585 365.92ZM322.068 339.468C314.05 339.468 307.961 336.83 303.799 331.555C299.675 326.28 297.613 318.521 297.613 308.279C297.613 297.652 299.694 289.604 303.856 284.137C308.019 278.669 314.127 275.935 322.182 275.935C327.309 275.935 331.432 277.071 334.555 279.343C337.715 281.615 339.622 284.849 340.277 289.046H344.788L340.799 306.2C340.799 299.115 339.391 293.763 336.577 290.143C333.802 286.485 329.679 284.657 324.206 284.657C318.734 284.657 314.59 286.659 311.776 290.663C308.962 294.629 307.556 300.501 307.556 308.279C307.556 315.672 308.962 321.274 311.776 325.086C314.629 328.86 318.791 330.746 324.264 330.746C329.699 330.746 333.802 328.937 336.577 325.317C339.391 321.659 340.799 316.288 340.799 309.203L344.961 326.126H339.874C339.295 330.284 337.484 333.557 334.439 335.945C331.394 338.293 327.27 339.468 322.068 339.468ZM366.756 347.207V338.313H424.569V347.207H366.756ZM476.138 339.468C467.542 339.468 461.26 337.504 457.29 333.576C453.36 329.611 451.394 323.431 451.394 315.036V304.814H461.338V314.632C461.338 320.023 462.61 324.008 465.152 326.588C467.698 329.129 471.744 330.4 477.294 330.4C479.375 330.4 481.475 330.304 483.595 330.111C485.754 329.88 488.085 329.572 490.59 329.187L491.748 338.082C489.126 338.544 486.562 338.89 484.057 339.121C481.591 339.352 478.951 339.468 476.138 339.468ZM451.394 309.434V258.608H461.338V309.434H451.394ZM434.86 285.985V277.09H489.435V285.985H434.86ZM534.413 339.468C526.088 339.468 519.613 336.695 514.988 331.151C510.363 325.606 508.05 317.79 508.05 307.701C508.05 297.575 510.363 289.758 514.988 284.252C519.613 278.708 526.088 275.935 534.413 275.935C542.776 275.935 549.251 278.708 553.838 284.252C558.463 289.758 560.775 297.575 560.775 307.701C560.775 317.79 558.463 325.606 553.838 331.151C549.251 336.695 542.776 339.468 534.413 339.468ZM534.413 330.4C539.539 330.4 543.489 328.436 546.264 324.509C549.039 320.543 550.426 314.94 550.426 307.701C550.426 300.463 549.039 294.88 546.264 290.952C543.489 286.986 539.539 285.003 534.413 285.003C529.286 285.003 525.336 286.986 522.561 290.952C519.786 294.88 518.399 300.463 518.399 307.701C518.399 314.94 519.786 320.543 522.561 324.509C525.336 328.436 529.286 330.4 534.413 330.4ZM574.881 347.207V338.313H632.694V347.207H574.881ZM684.263 339.468C675.667 339.468 669.385 337.504 665.415 333.576C661.485 329.611 659.519 323.431 659.519 315.036V304.814H669.463V314.632C669.463 320.023 670.735 324.008 673.277 326.588C675.823 329.129 679.869 330.4 685.419 330.4C687.5 330.4 689.6 330.304 691.72 330.111C693.879 329.88 696.21 329.572 698.715 329.187L699.873 338.082C697.251 338.544 694.687 338.89 692.182 339.121C689.716 339.352 687.076 339.468 684.263 339.468ZM659.519 309.434V258.608H669.463V309.434H659.519ZM642.985 285.985V277.09H697.56V285.985H642.985ZM714.44 338.313L739.243 305.045L759.13 277.09H770.635L745.313 311.225L725.945 338.313H714.44ZM759.13 338.313L739.357 311.109L714.44 277.09H725.945L745.949 304.929L770.635 338.313H759.13ZM823.013 339.468C814.417 339.468 808.135 337.504 804.165 333.576C800.235 329.611 798.269 323.431 798.269 315.036V304.814H808.213V314.632C808.213 320.023 809.485 324.008 812.027 326.588C814.573 329.129 818.619 330.4 824.169 330.4C826.25 330.4 828.35 330.304 830.47 330.111C832.629 329.88 834.96 329.572 837.465 329.187L838.623 338.082C836.001 338.544 833.437 338.89 830.932 339.121C828.466 339.352 825.826 339.468 823.013 339.468ZM798.269 309.434V258.608H808.213V309.434H798.269ZM781.735 285.985V277.09H836.31V285.985H781.735Z" fill="#969696"/>
</g>
<g filter="url(#filter1_d_5_3336)">
<path d="M926.15 229.268H861.4V367.884H926.15V229.268Z" fill="#969696" fill-opacity="0.8"/>
</g>
</g>
<defs>
<filter id="filter0_d_5_3336" x="153.562" y="242.349" width="694.06" height="133.571" filterUnits="userSpaceOnUse" color-interpolation-filters="sRGB">
<feFlood flood-opacity="0" result="BackgroundImageFix"/>
<feColorMatrix in="SourceAlpha" type="matrix" values="0 0 0 0 0 0 0 0 0 0 0 0 0 0 0 0 0 0 127 0" result="hardAlpha"/>
<feOffset dy="1"/>
<feGaussianBlur stdDeviation="4.5"/>
<feComposite in2="hardAlpha" operator="out"/>
<feColorMatrix type="matrix" values="0 0 0 0 0 0 0 0 0 0 0 0 0 0 0 0 0 0 0.25 0"/>
<feBlend mode="normal" in2="BackgroundImageFix" result="effect1_dropShadow_5_3336"/>
<feBlend mode="normal" in="SourceGraphic" in2="effect1_dropShadow_5_3336" result="shape"/>
</filter>
<filter id="filter1_d_5_3336" x="857.4" y="226.268" width="72.75" height="146.616" filterUnits="userSpaceOnUse" color-interpolation-filters="sRGB">
<feFlood flood-opacity="0" result="BackgroundImageFix"/>
<feColorMatrix in="SourceAlpha" type="matrix" values="0 0 0 0 0 0 0 0 0 0 0 0 0 0 0 0 0 0 127 0" result="hardAlpha"/>
<feOffset dy="1"/>
<feGaussianBlur stdDeviation="2"/>
<feComposite in2="hardAlpha" operator="out"/>
<feColorMatrix type="matrix" values="0 0 0 0 0 0 0 0 0 0 0 0 0 0 0 0 0 0 0.25 0"/>
<feBlend mode="normal" in2="BackgroundImageFix" result="effect1_dropShadow_5_3336"/>
<feBlend mode="normal" in="SourceGraphic" in2="effect1_dropShadow_5_3336" result="shape"/>
</filter>
<clipPath id="clip0_5_3336">
<rect width="925" height="207" fill="white" transform="translate(77 196)"/>
</clipPath>
</defs>
</svg>
