<svg width="1080" height="600" viewBox="0 0 1080 600" fill="none" xmlns="http://www.w3.org/2000/svg">
<rect width="1080" height="600" fill="#212529"/>
<g clip-path="url(#clip0_5_163)">
<rect width="1000" height="402" transform="translate(40 101)" fill="#212529"/>
<path d="M766.384 204.1V173.782H794.42V204.1H766.384ZM767.362 416V249.74H793.768V416H767.362Z" fill="#E4E4E4"/>
<path d="M283.6 416V191.712H311.636V391.224H416.282V416H283.6ZM520.304 418.608C506.612 418.608 495.202 417.739 486.074 416C477.163 414.479 470.1 411.871 464.884 408.176C459.668 404.481 455.756 399.374 453.148 392.854C450.757 386.334 449.236 378.184 448.584 368.404C447.932 358.407 447.606 346.562 447.606 332.87C447.606 319.178 447.932 307.442 448.584 297.662C449.236 287.665 450.757 279.406 453.148 272.886C455.756 266.366 459.668 261.259 464.884 257.564C470.1 253.869 477.163 251.261 486.074 249.74C495.202 248.001 506.612 247.132 520.304 247.132C534.213 247.132 545.623 248.001 554.534 249.74C563.445 251.261 570.508 253.869 575.724 257.564C581.157 261.259 585.069 266.366 587.46 272.886C590.068 279.406 591.698 287.665 592.35 297.662C593.002 307.442 593.328 319.178 593.328 332.87C593.328 346.562 593.002 358.407 592.35 368.404C591.698 378.184 590.068 386.334 587.46 392.854C585.069 399.374 581.157 404.481 575.724 408.176C570.508 411.871 563.445 414.479 554.534 416C545.623 417.739 534.213 418.608 520.304 418.608ZM520.304 396.114C532.04 396.114 541.059 395.353 547.362 393.832C553.665 392.311 558.12 389.377 560.728 385.03C563.553 380.683 565.183 374.381 565.618 366.122C566.27 357.646 566.596 346.562 566.596 332.87C566.596 319.178 566.27 308.203 565.618 299.944C565.183 291.468 563.553 285.057 560.728 280.71C558.12 276.363 553.665 273.429 547.362 271.908C541.059 270.387 532.04 269.626 520.304 269.626C508.785 269.626 499.766 270.387 493.246 271.908C486.943 273.429 482.488 276.363 479.88 280.71C477.272 285.057 475.642 291.468 474.99 299.944C474.338 308.203 474.012 319.178 474.012 332.87C474.012 346.562 474.338 357.646 474.99 366.122C475.642 374.381 477.272 380.683 479.88 385.03C482.488 389.377 486.943 392.311 493.246 393.832C499.766 395.353 508.785 396.114 520.304 396.114Z" fill="#E4E4E4"/>
<path d="M697.5 250L628 332L697 416H728L661 332L726.5 250H697.5Z" fill="#E4E4E4"/>
</g>
<defs>
<clipPath id="clip0_5_163">
<rect width="1000" height="402" fill="white" transform="translate(40 101)"/>
</clipPath>
</defs>
</svg>
