<svg width="1080" height="600" viewBox="0 0 1080 600" fill="none" xmlns="http://www.w3.org/2000/svg">
<rect width="1080" height="600" fill="url(#paint0_linear_5_3511)"/>
<path d="M508.204 348.778V322.698C508.204 314.439 508.965 308.137 510.486 303.79C512.225 299.443 514.833 296.075 518.31 293.684C522.005 291.293 526.677 289.12 532.328 287.164L544.064 283.252C551.888 280.427 557.647 277.819 561.342 275.428C565.037 272.82 567.536 269.125 568.84 264.344C570.144 259.563 570.796 252.825 570.796 244.132C570.796 233.7 569.275 226.093 566.232 221.312C563.407 216.531 558.517 213.488 551.562 212.184C544.825 210.88 535.479 210.228 523.526 210.228C520.266 210.228 516.463 210.337 512.116 210.554C507.987 210.771 503.531 211.097 498.75 211.532C493.969 211.749 489.187 212.075 484.406 212.51C479.625 212.945 474.952 213.488 470.388 214.14V191.32C476.691 190.233 483.537 189.364 490.926 188.712C498.315 187.843 505.596 187.191 512.768 186.756C520.157 186.321 526.895 186.104 532.98 186.104C544.716 186.104 554.713 187.082 562.972 189.038C571.448 190.994 578.294 194.254 583.51 198.818C588.726 203.165 592.529 209.033 594.92 216.422C597.528 223.594 598.832 232.505 598.832 243.154C598.832 250.109 598.397 256.52 597.528 262.388C596.876 268.039 595.572 273.146 593.616 277.71C591.66 282.057 588.835 285.86 585.14 289.12C581.663 292.163 577.207 294.662 571.774 296.618L560.038 300.53C553.735 302.703 548.737 304.659 545.042 306.398C541.347 307.919 538.631 309.549 536.892 311.288C535.371 312.809 534.284 314.874 533.632 317.482C533.197 320.09 532.98 323.676 532.98 328.24V348.778H508.204ZM505.27 413V381.052H536.24V413H505.27Z" fill="#E4CAA5"/>
<defs>
<linearGradient id="paint0_linear_5_3511" x1="885" y1="71.0001" x2="163.5" y2="545.5" gradientUnits="userSpaceOnUse">
<stop stop-color="#37311F"/>
<stop offset="1" stop-color="#303030"/>
</linearGradient>
</defs>
</svg>
