<svg width="1080" height="600" viewBox="0 0 1080 600" fill="none" xmlns="http://www.w3.org/2000/svg">
<g clip-path="url(#clip0_5_3230)">
<rect width="1080" height="600" fill="#D7D7D7"/>
<g filter="url(#filter0_d_5_3230)">
<path d="M1079.73 0H0.27112C-9.81974 0 -18 20.4748 -18 45.7317V554.268C-18 579.525 -9.81974 600 0.27112 600H1079.73C1089.82 600 1098 579.525 1098 554.268V45.7317C1098 20.4748 1089.82 0 1079.73 0Z" fill="url(#paint0_radial_5_3230)"/>
<g filter="url(#filter1_d_5_3230)">
<path d="M125.235 309.702H100.326V352.601H86.2695V246.556H121.375C133.32 246.556 142.497 249.275 148.907 254.713C155.364 260.151 158.593 268.066 158.593 278.456C158.593 285.061 156.797 290.814 153.203 295.718C149.659 300.623 144.706 304.288 138.346 306.716L163.254 351.727V352.601H148.251L125.235 309.702ZM100.326 298.268H121.812C128.755 298.268 134.267 296.471 138.346 292.877C142.472 289.285 144.536 284.477 144.536 278.456C144.536 271.902 142.57 266.876 138.636 263.38C134.752 259.884 129.12 258.112 121.739 258.063H100.326V298.268ZM274.426 254.713V273.795H289.139V284.211H274.426V333.082C274.426 336.238 275.082 338.617 276.393 340.219C277.703 341.773 279.937 342.55 283.093 342.55C284.647 342.55 286.784 342.259 289.503 341.676V352.601C285.958 353.572 282.51 354.058 279.16 354.058C273.139 354.058 268.599 352.237 265.541 348.595C262.481 344.954 260.952 339.783 260.952 333.082V284.211H246.604V273.795H260.952V254.713H274.426ZM353.596 352.601C352.819 351.048 352.188 348.279 351.702 344.298C345.439 350.804 337.961 354.058 329.27 354.058C321.501 354.058 315.116 351.873 310.114 347.503C305.162 343.084 302.686 337.5 302.686 330.751C302.686 322.545 305.793 316.185 312.008 311.669C318.272 307.104 327.06 304.823 338.374 304.823H351.484V298.632C351.484 293.922 350.076 290.183 347.26 287.415C344.443 284.599 340.291 283.191 334.805 283.191C329.998 283.191 325.968 284.405 322.714 286.832C319.461 289.26 317.835 292.198 317.835 295.645H304.287C304.287 291.712 305.672 287.925 308.439 284.283C311.256 280.593 315.043 277.68 319.801 275.543C324.609 273.407 329.876 272.339 335.606 272.339C344.686 272.339 351.799 274.62 356.947 279.185C362.093 283.701 364.764 289.94 364.958 297.903V334.174C364.958 341.409 365.88 347.163 367.726 351.436V352.601H353.596ZM331.236 342.332C335.46 342.332 339.466 341.239 343.254 339.054C347.041 336.869 349.784 334.028 351.484 330.532V314.364H340.923C324.414 314.364 316.159 319.195 316.159 328.857C316.159 333.082 317.568 336.383 320.384 338.763C323.2 341.142 326.818 342.332 331.236 342.332ZM404.361 254.713V273.795H419.073V284.211H404.361V333.082C404.361 336.238 405.017 338.617 406.328 340.219C407.639 341.773 409.872 342.55 413.028 342.55C414.582 342.55 416.719 342.259 419.437 341.676V352.601C415.893 353.572 412.445 354.058 409.095 354.058C403.074 354.058 398.534 352.237 395.475 348.595C392.417 344.954 390.887 339.783 390.887 333.082V284.211H376.539V273.795H390.887V254.713H404.361ZM467.581 354.058C456.898 354.058 448.207 350.562 441.506 343.57C434.805 336.529 431.455 327.134 431.455 315.383V312.907C431.455 305.089 432.936 298.122 435.898 292.003C438.908 285.837 443.084 281.03 448.425 277.583C453.815 274.086 459.641 272.339 465.906 272.339C476.151 272.339 484.114 275.713 489.795 282.462C495.475 289.212 498.316 298.874 498.316 311.45V317.059H444.929C445.124 324.827 447.381 331.115 451.703 335.922C456.073 340.681 461.608 343.06 468.309 343.06C473.067 343.06 477.098 342.089 480.399 340.147C483.701 338.204 486.59 335.631 489.066 332.427L497.296 338.836C490.693 348.984 480.788 354.058 467.581 354.058ZM465.906 283.409C460.467 283.409 455.903 285.4 452.213 289.382C448.523 293.315 446.24 298.85 445.366 305.988H484.842V304.968C484.454 298.122 482.608 292.829 479.307 289.091C476.005 285.303 471.537 283.409 465.906 283.409ZM584.332 305.332C572.339 301.885 563.599 297.66 558.113 292.659C552.674 287.609 549.955 281.394 549.955 274.014C549.955 265.662 553.282 258.768 559.933 253.329C566.634 247.842 575.325 245.099 586.008 245.099C593.291 245.099 599.773 246.507 605.454 249.323C611.184 252.139 615.603 256.024 618.71 260.977C621.866 265.929 623.444 271.343 623.444 277.219H609.388C609.388 270.809 607.348 265.784 603.269 262.142C599.191 258.452 593.437 256.607 586.008 256.607C579.113 256.607 573.723 258.136 569.839 261.195C566.003 264.205 564.085 268.405 564.085 273.795C564.085 278.117 565.906 281.783 569.548 284.793C573.238 287.755 579.477 290.474 588.266 292.951C597.103 295.427 603.998 298.17 608.95 301.181C613.951 304.143 617.642 307.614 620.021 311.596C622.449 315.577 623.663 320.263 623.663 325.653C623.663 334.247 620.312 341.142 613.612 346.338C606.911 351.484 597.953 354.058 586.736 354.058C579.453 354.058 572.655 352.674 566.343 349.906C560.031 347.09 555.151 343.254 551.703 338.398C548.304 333.543 546.605 328.032 546.605 321.866H560.662C560.662 328.275 563.017 333.349 567.727 337.088C572.485 340.778 578.821 342.623 586.736 342.623C594.117 342.623 599.773 341.118 603.706 338.107C607.639 335.097 609.606 330.994 609.606 325.798C609.606 320.603 607.785 316.597 604.143 313.781C600.502 310.916 593.898 308.1 584.332 305.332ZM671.15 343.06C675.957 343.06 680.157 341.603 683.75 338.69C687.342 335.777 689.331 332.135 689.721 327.765H702.467C702.225 332.281 700.673 336.578 697.81 340.657C694.941 344.735 691.105 347.989 686.301 350.416C681.541 352.844 676.492 354.058 671.15 354.058C660.42 354.058 651.874 350.489 645.513 343.351C639.201 336.165 636.044 326.357 636.044 313.926V311.669C636.044 303.997 637.453 297.175 640.268 291.202C643.085 285.23 647.115 280.593 652.359 277.291C657.652 273.99 663.891 272.339 671.077 272.339C679.914 272.339 687.248 274.985 693.074 280.277C698.946 285.57 702.077 292.441 702.467 300.889H689.721C689.331 295.791 687.389 291.615 683.896 288.362C680.448 285.061 676.176 283.409 671.077 283.409C664.231 283.409 658.914 285.886 655.127 290.838C651.388 295.742 649.519 302.856 649.519 312.179V314.728C649.519 323.807 651.388 330.8 655.127 335.704C658.865 340.608 664.206 343.06 671.15 343.06ZM755.709 285.886C753.673 285.546 751.462 285.376 749.084 285.376C740.248 285.376 734.248 289.139 731.09 296.665V352.601H717.618V273.795H730.727L730.949 282.9C735.363 275.859 741.625 272.339 749.735 272.339C752.363 272.339 754.351 272.679 755.709 273.358V285.886ZM799.409 354.058C788.726 354.058 780.038 350.562 773.333 343.57C766.634 336.529 763.288 327.134 763.288 315.383V312.907C763.288 305.089 764.766 298.122 767.729 292.003C770.739 285.837 774.912 281.03 780.253 277.583C785.642 274.086 791.474 272.339 797.736 272.339C807.983 272.339 815.945 275.713 821.623 282.462C827.307 289.212 830.149 298.874 830.149 311.45V317.059H776.759C776.954 324.827 779.212 331.115 783.532 335.922C787.9 340.681 793.436 343.06 800.142 343.06C804.899 343.06 808.93 342.089 812.229 340.147C815.528 338.204 818.418 335.631 820.897 332.427L829.128 338.836C822.523 348.984 812.619 354.058 799.409 354.058ZM797.736 283.409C792.294 283.409 787.732 285.4 784.043 289.382C780.354 293.315 778.07 298.85 777.196 305.988H816.671V304.968C816.281 298.122 814.44 292.829 811.134 289.091C807.835 285.303 803.367 283.409 797.736 283.409ZM878.506 354.058C867.823 354.058 859.135 350.562 852.436 343.57C845.731 336.529 842.385 327.134 842.385 315.383V312.907C842.385 305.089 843.863 298.122 846.826 292.003C849.836 285.837 854.008 281.03 859.35 277.583C864.739 274.086 870.571 272.339 876.833 272.339C887.08 272.339 895.042 275.713 900.719 282.462C906.404 289.212 909.246 298.874 909.246 311.45V317.059H855.856C856.051 324.827 858.309 331.115 862.629 335.922C866.996 340.681 872.533 343.06 879.238 343.06C883.996 343.06 888.027 342.089 891.326 340.147C894.625 338.204 897.514 335.631 899.994 332.427L908.225 338.836C901.62 348.984 891.716 354.058 878.506 354.058ZM876.833 283.409C871.391 283.409 866.828 285.4 863.14 289.382C859.451 293.315 857.166 298.85 856.293 305.988H895.767V304.968C895.378 298.122 893.537 292.829 890.231 289.091C886.932 285.303 882.464 283.409 876.833 283.409ZM937.647 273.795L938.084 283.701C944.104 276.126 951.972 272.339 961.681 272.339C978.338 272.339 986.737 281.734 986.884 300.525V352.601H973.406V300.453C973.359 294.772 972.049 290.572 969.475 287.852C966.949 285.133 962.992 283.773 957.603 283.773C953.235 283.773 949.399 284.939 946.1 287.27C942.794 289.6 940.221 292.659 938.38 296.447V352.601H924.901V273.795H937.647Z" fill="#3E677B"/>
</g>
<g filter="url(#filter2_d_5_3230)">
<path d="M204.386 275.762C213.143 275.817 221.528 279.667 227.761 286.494L227.859 275.98C227.874 274.39 229.044 273.112 230.473 273.125C231.902 273.139 233.049 274.438 233.035 276.028L232.874 293.297C232.863 294.536 232.14 295.63 231.079 296.012L215.498 301.624C214.135 302.113 212.676 301.283 212.238 299.769C211.801 298.255 212.55 296.63 213.913 296.14L225.416 292.005C214.945 279.08 197.019 278.063 185.377 289.734C173.735 301.405 172.786 321.345 183.257 334.269C193.728 347.194 211.654 348.21 223.297 336.539C230.434 329.383 233.838 318.705 232.342 308.162C232.106 306.594 233.057 305.109 234.467 304.843C235.877 304.577 237.211 305.632 237.447 307.2C237.45 307.217 237.452 307.234 237.454 307.251C237.745 309.315 237.882 311.403 237.862 313.492C237.649 334.147 222.444 350.745 203.872 350.596C185.292 350.479 170.344 333.632 170.486 312.967C170.628 292.302 185.806 275.645 204.386 275.762Z" fill="#3E677B"/>
<path d="M204.386 275.762C213.143 275.817 221.528 279.667 227.761 286.494L227.859 275.98C227.874 274.39 229.044 273.112 230.473 273.125C231.902 273.139 233.049 274.438 233.035 276.028L232.874 293.297C232.863 294.536 232.14 295.63 231.079 296.012L215.498 301.624C214.135 302.113 212.676 301.283 212.238 299.769C211.801 298.255 212.55 296.63 213.913 296.14L225.416 292.005C214.945 279.08 197.019 278.063 185.377 289.734C173.735 301.405 172.786 321.345 183.257 334.269C193.728 347.194 211.654 348.21 223.297 336.539C230.434 329.383 233.838 318.705 232.342 308.162C232.106 306.594 233.057 305.109 234.467 304.843C235.877 304.577 237.211 305.632 237.447 307.2C237.45 307.217 237.452 307.234 237.454 307.251C237.745 309.315 237.882 311.403 237.862 313.492C237.649 334.147 222.444 350.745 203.872 350.596C185.292 350.479 170.344 333.632 170.486 312.967C170.628 292.302 185.806 275.645 204.386 275.762Z" stroke="#3E677B" stroke-width="6"/>
</g>
</g>
</g>
<defs>
<filter id="filter0_d_5_3230" x="-37" y="-17" width="1154" height="638" filterUnits="userSpaceOnUse" color-interpolation-filters="sRGB">
<feFlood flood-opacity="0" result="BackgroundImageFix"/>
<feColorMatrix in="SourceAlpha" type="matrix" values="0 0 0 0 0 0 0 0 0 0 0 0 0 0 0 0 0 0 127 0" result="hardAlpha"/>
<feOffset dy="2"/>
<feGaussianBlur stdDeviation="9.5"/>
<feComposite in2="hardAlpha" operator="out"/>
<feColorMatrix type="matrix" values="0 0 0 0 0 0 0 0 0 0 0 0 0 0 0 0 0 0 0.5 0"/>
<feBlend mode="normal" in2="BackgroundImageFix" result="effect1_dropShadow_5_3230"/>
<feBlend mode="normal" in="SourceGraphic" in2="effect1_dropShadow_5_3230" result="shape"/>
</filter>
<filter id="filter1_d_5_3230" x="80.2695" y="242.099" width="918.615" height="126.959" filterUnits="userSpaceOnUse" color-interpolation-filters="sRGB">
<feFlood flood-opacity="0" result="BackgroundImageFix"/>
<feColorMatrix in="SourceAlpha" type="matrix" values="0 0 0 0 0 0 0 0 0 0 0 0 0 0 0 0 0 0 127 0" result="hardAlpha"/>
<feOffset dx="3" dy="6"/>
<feGaussianBlur stdDeviation="4.5"/>
<feColorMatrix type="matrix" values="0 0 0 0 0 0 0 0 0 0 0 0 0 0 0 0 0 0 0.25 0"/>
<feBlend mode="normal" in2="BackgroundImageFix" result="effect1_dropShadow_5_3230"/>
<feBlend mode="normal" in="SourceGraphic" in2="effect1_dropShadow_5_3230" result="shape"/>
</filter>
<filter id="filter2_d_5_3230" x="161.485" y="267.125" width="91.3788" height="101.472" filterUnits="userSpaceOnUse" color-interpolation-filters="sRGB">
<feFlood flood-opacity="0" result="BackgroundImageFix"/>
<feColorMatrix in="SourceAlpha" type="matrix" values="0 0 0 0 0 0 0 0 0 0 0 0 0 0 0 0 0 0 127 0" result="hardAlpha"/>
<feOffset dx="3" dy="6"/>
<feGaussianBlur stdDeviation="4.5"/>
<feColorMatrix type="matrix" values="0 0 0 0 0 0 0 0 0 0 0 0 0 0 0 0 0 0 0.25 0"/>
<feBlend mode="normal" in2="BackgroundImageFix" result="effect1_dropShadow_5_3230"/>
<feBlend mode="normal" in="SourceGraphic" in2="effect1_dropShadow_5_3230" result="shape"/>
</filter>
<radialGradient id="paint0_radial_5_3230" cx="0" cy="0" r="1" gradientUnits="userSpaceOnUse" gradientTransform="translate(405.89 268.902) rotate(94.4997) scale(726.63 1395.33)">
<stop stop-color="#D7D7D7"/>
<stop offset="1" stop-color="#B5B5B5"/>
</radialGradient>
<clipPath id="clip0_5_3230">
<rect width="1080" height="600" fill="white"/>
</clipPath>
</defs>
</svg>
