<svg width="1080" height="600" viewBox="0 0 1080 600" fill="none" xmlns="http://www.w3.org/2000/svg">
<rect width="1080" height="600" fill="#9E8352"/>
<g clip-path="url(#clip0_5_197)">
<path d="M308.584 310.215L274.184 287.893C268.548 284.298 264.876 280.942 263.212 277.811C262.068 275.655 261.51 273.238 261.593 270.8C261.704 267.752 262.845 264.831 264.831 262.515C269.028 256.762 275.808 253.886 285.171 253.886C292.865 253.886 299.016 255.774 303.623 259.549C305.864 261.335 307.659 263.619 308.863 266.22C310.068 268.82 310.65 271.666 310.563 274.53H312.361L314.7 248.073H303.353C295.246 247.004 287.082 246.419 278.905 246.321C267.743 246.321 258.83 249.202 252.165 254.965C248.86 257.819 246.173 261.317 244.268 265.246C242.364 269.174 241.281 273.45 241.088 277.811C240.85 278.995 240.73 280.199 240.728 281.406C240.728 292.812 246.549 302.415 258.19 310.215L289.518 330.904C293.652 333.389 297.387 336.485 300.595 340.087C302.768 342.716 303.946 346.025 303.922 349.435C303.979 352.218 303.402 354.976 302.233 357.502C301.064 360.027 299.335 362.254 297.177 364.012C292.66 367.857 286.39 369.78 278.366 369.78C268.043 369.78 259.909 366.689 253.963 360.506C251.11 357.664 248.852 354.281 247.321 350.557C245.789 346.832 245.016 342.84 245.045 338.814C245.045 337.852 245.105 336.892 245.225 335.937H243.576C239.705 342.661 237.774 350.325 238 358.08C237.931 360.888 238.358 363.688 239.259 366.349C242.497 369.725 247.568 372.396 254.473 374.364C261.826 376.412 269.429 377.421 277.062 377.36C291.481 377.36 303.038 373.969 311.732 367.188C320.425 360.407 324.777 350.659 324.787 337.945C324.787 326.539 319.386 317.296 308.584 310.215Z" fill="white"/>
<path d="M652.481 250.635H655.719C657.157 250.615 658.584 250.884 659.915 251.427C661.247 251.97 662.455 252.776 663.468 253.796C664.526 254.81 665.372 256.023 665.959 257.365C666.545 258.707 666.86 260.152 666.886 261.616V332.702L575.961 246.141H574.342L574.702 248.837C575.889 255.37 576.432 262.004 576.321 268.642V362.035C576.355 363.495 576.083 364.946 575.523 366.295C574.963 367.645 574.127 368.862 573.068 369.87C572.027 370.897 570.79 371.705 569.43 372.245C568.071 372.785 566.617 373.048 565.154 373.016H560.253C558.747 373.032 557.253 372.747 555.86 372.175C554.467 371.604 553.203 370.759 552.143 369.69C551.048 368.664 550.179 367.422 549.59 366.042C549.002 364.662 548.707 363.175 548.726 361.675L535.445 261.811C535.42 260.323 535.712 258.847 536.301 257.481C536.89 256.114 537.763 254.889 538.863 253.886C539.937 252.843 541.205 252.021 542.597 251.469C543.988 250.916 545.475 250.643 546.972 250.665H549.131L549.31 248.852H494.57V250.665H496.923C498.405 250.638 499.878 250.909 501.253 251.462C502.628 252.015 503.878 252.84 504.927 253.886C506.005 254.912 506.869 256.14 507.471 257.499C508.073 258.859 508.4 260.324 508.435 261.811L507.416 268.508C512.52 268.582 517.609 269.083 522.63 270.006C517.466 270.95 512.23 271.451 506.981 271.504L505.587 280.657C511.301 280.65 517.005 281.151 522.63 282.155C516.86 283.174 511.011 283.676 505.152 283.653L503.758 292.762H504.313C510.452 292.695 516.584 293.196 522.63 294.26C516.583 295.317 510.451 295.818 504.313 295.758H503.309L501.93 304.912H504.313C510.451 304.852 516.583 305.353 522.63 306.41C516.583 307.466 510.451 307.968 504.313 307.908H501.495L500.101 317.061C501.495 317.061 502.904 316.986 504.313 316.971C510.451 316.912 516.583 317.413 522.63 318.469C516.583 319.526 510.451 320.027 504.313 319.968C502.814 319.968 501.21 319.968 499.666 319.878L498.257 329.211C500.266 329.121 502.289 329.061 504.253 329.046C510.391 328.986 516.523 329.488 522.57 330.544C516.524 331.608 510.392 332.11 504.253 332.042C502.094 332.042 499.951 331.967 497.793 331.863L496.249 342.349C498.962 342.17 501.675 342.095 504.388 342.08C510.527 342.012 516.658 342.514 522.705 343.578C516.657 344.634 510.526 345.136 504.388 345.076C501.555 345.076 498.722 344.971 495.889 344.791L494.39 354.559C497.718 354.289 501.045 354.184 504.373 354.154C510.511 354.095 516.643 354.596 522.69 355.653C516.643 356.709 510.511 357.211 504.373 357.151C500.94 357.151 497.493 357.001 494.06 356.716L493.296 361.75C493.217 364.776 491.958 367.652 489.788 369.765C488.748 370.835 487.501 371.682 486.122 372.254C484.743 372.826 483.262 373.111 481.769 373.091H477.272C475.778 373.083 474.3 372.777 472.925 372.191C471.551 371.604 470.307 370.749 469.268 369.675C468.168 368.652 467.294 367.411 466.703 366.031C466.112 364.65 465.816 363.161 465.836 361.66V261.976C465.817 260.477 466.112 258.99 466.704 257.612C467.295 256.234 468.168 254.995 469.268 253.976C470.323 252.905 471.584 252.058 472.975 251.486C474.366 250.915 475.858 250.63 477.362 250.65H479.701V248.837H424.9V250.65H427.298C428.79 250.625 430.27 250.907 431.647 251.48C433.024 252.052 434.269 252.902 435.303 253.976C437.478 256.078 438.739 258.952 438.81 261.976V308.252H380.427V261.976C380.409 260.478 380.704 258.993 381.292 257.616C381.881 256.238 382.75 254.999 383.845 253.976C384.9 252.905 386.161 252.058 387.552 251.486C388.943 250.915 390.435 250.63 391.939 250.65H394.097L394.277 248.837H339.552V250.65H341.86C343.351 250.625 344.832 250.907 346.209 251.48C347.586 252.052 348.83 252.902 349.864 253.976C352.044 256.077 353.31 258.95 353.387 261.976V361.675C353.313 364.695 352.059 367.567 349.894 369.675C348.856 370.753 347.607 371.606 346.225 372.18C344.843 372.755 343.357 373.039 341.86 373.016H339.552V374.813H394.322L394.142 373.016H391.984C390.469 373.038 388.966 372.754 387.565 372.18C386.163 371.605 384.893 370.753 383.83 369.675C382.735 368.649 381.865 367.407 381.277 366.027C380.688 364.647 380.394 363.16 380.412 361.66V315.968H438.735V361.855C438.496 365.244 436.948 368.409 434.418 370.679C432.409 372.351 429.833 373.188 427.224 373.016H424.9V374.813H616.462V373.016H613.044C611.61 373.036 610.186 372.768 608.858 372.228C607.529 371.687 606.322 370.885 605.31 369.87C604.264 368.885 603.435 367.693 602.878 366.369C602.32 365.046 602.046 363.62 602.072 362.184V290.769L692.997 377.33H694.616L694.076 374.634C692.897 367.923 692.355 361.117 692.457 354.304V261.421C692.537 259.517 693.094 257.662 694.076 256.028C695.013 254.334 696.401 252.932 698.086 251.977C699.771 251.022 701.688 250.553 703.624 250.62H707.042V248.822H652.481V250.635Z" fill="white"/>
<path d="M839.201 322.26H837.702C834.814 339.788 829.648 352.147 822.204 359.338C814.889 366.329 804.266 369.825 790.337 369.825C776.886 369.465 766.234 364.067 758.38 353.63C750.525 343.193 746.613 329.066 746.643 311.249C746.643 293.491 750.755 279.509 758.979 269.302C767.203 259.094 778.395 253.961 792.555 253.901C814.409 253.901 828.399 264.942 834.525 287.024H836.024L835.664 256.073C823.193 249.581 808.249 246.34 790.831 246.35C768.028 246.35 750.086 252.203 737.005 263.908C723.924 275.614 717.379 291.593 717.369 311.848C717.369 332.132 723.974 348.112 737.185 359.787C750.395 371.463 768.577 377.31 791.731 377.33C814.904 377.39 831.352 369.4 841.075 353.36L839.201 322.26Z" fill="white"/>
<path d="M294.209 424.371C294.205 425.059 294.115 425.743 293.939 426.408C293.76 427.099 293.461 427.753 293.055 428.341C292.631 428.957 292.072 429.47 291.421 429.839C290.331 430.448 289.054 430.633 287.836 430.356C286.618 430.079 285.546 429.361 284.826 428.341C284.409 427.76 284.109 427.104 283.942 426.408C283.767 425.743 283.676 425.059 283.672 424.371V411.622H280.839V424.895C280.834 425.994 281.043 427.082 281.453 428.101C281.849 429.068 282.43 429.948 283.162 430.693C283.896 431.424 284.774 431.996 285.74 432.371C287.794 433.17 290.072 433.17 292.126 432.371C293.092 431.996 293.97 431.424 294.704 430.693C295.441 429.952 296.022 429.071 296.413 428.101C296.844 427.046 297.058 425.915 297.042 424.775V411.622H294.209V424.371Z" fill="white"/>
<path d="M344.018 428.745H343.958L332.417 411.547H328.699V432.476H331.532V415.262H331.592L343.254 432.476H346.866V411.547H344.018V428.745Z" fill="white"/>
<path d="M395.821 417.614C395.487 416.819 395.054 416.069 394.532 415.382C393.967 414.623 393.277 413.965 392.493 413.435C391.604 412.843 390.628 412.393 389.6 412.101C388.334 411.739 387.02 411.568 385.703 411.592H378.404V432.566H385.329C387.02 432.604 388.702 432.303 390.275 431.682C391.62 431.147 392.843 430.347 393.872 429.33C394.827 428.381 395.572 427.243 396.061 425.989C396.556 424.75 396.811 423.428 396.81 422.094C396.806 420.551 396.5 419.025 395.911 417.599L395.821 417.614ZM392.988 425.479C392.533 426.419 391.879 427.247 391.069 427.906C390.233 428.587 389.27 429.096 388.236 429.405C387.128 429.738 385.976 429.905 384.819 429.899H381.237V414.214H385.493C386.925 414.15 388.351 414.438 389.645 415.053C390.622 415.542 391.478 416.243 392.149 417.105C392.725 417.866 393.139 418.738 393.363 419.667C393.567 420.43 393.677 421.214 393.693 422.004C393.729 423.185 393.493 424.359 393.003 425.435L392.988 425.479Z" fill="white"/>
<path d="M430.311 423.097H440.249V420.446H430.311V414.199H440.983V411.547H427.463V432.476H441.523V429.809H430.311V423.097Z" fill="white"/>
<path d="M483.268 422.289C483.885 421.966 484.438 421.535 484.902 421.015C485.34 420.522 485.685 419.953 485.921 419.337C486.149 418.718 486.266 418.064 486.266 417.405C486.267 416.719 486.166 416.038 485.966 415.382C485.77 414.675 485.411 414.023 484.917 413.48C484.342 412.871 483.641 412.396 482.863 412.086C481.805 411.693 480.679 411.51 479.551 411.547H472.266V432.521H475.099V423.292H478.262L483.598 432.521H487.135L481.139 422.978C481.886 422.883 482.608 422.65 483.268 422.289ZM478.771 420.79H475.039V414.049H478.771C479.324 414.049 479.875 414.094 480.42 414.184C480.944 414.252 481.452 414.415 481.919 414.663C482.343 414.907 482.694 415.258 482.938 415.682C483.217 416.217 483.351 416.816 483.328 417.42C483.351 418.018 483.217 418.612 482.938 419.142C482.703 419.573 482.349 419.926 481.919 420.161C481.452 420.413 480.945 420.58 480.42 420.656C479.87 420.741 479.313 420.781 478.756 420.775L478.771 420.79Z" fill="white"/>
<path d="M535.055 428.266H535.01L530.079 411.547H526.826L521.895 428.266H521.85L517.218 411.547H514.25L520.381 432.476H523.394L528.415 415.382H528.475L533.542 432.476H536.554L542.655 411.547H539.702L535.055 428.266Z" fill="white"/>
<path d="M583.096 422.288C583.713 421.966 584.267 421.535 584.73 421.015C585.173 420.526 585.519 419.956 585.749 419.337C585.989 418.721 586.111 418.066 586.109 417.405C586.102 416.72 586.001 416.039 585.809 415.382C585.607 414.677 585.249 414.027 584.76 413.48C584.182 412.875 583.482 412.4 582.706 412.086C581.647 411.695 580.522 411.512 579.394 411.547H572.019V432.521H574.867V423.292H578.03L583.351 432.521H586.903L580.908 422.978C581.675 422.894 582.419 422.66 583.096 422.288ZM578.599 420.79H574.882V414.049H578.599C579.152 414.048 579.703 414.094 580.248 414.184C580.773 414.25 581.281 414.412 581.747 414.663C582.178 414.902 582.536 415.254 582.781 415.682C583.055 416.219 583.184 416.818 583.156 417.42C583.184 418.017 583.055 418.611 582.781 419.142C582.545 419.577 582.185 419.931 581.747 420.161C581.282 420.417 580.774 420.585 580.248 420.656C579.698 420.741 579.141 420.782 578.584 420.775L578.599 420.79Z" fill="white"/>
<path d="M619.58 411.532H616.747V432.461H619.58V411.532Z" fill="white"/>
<path d="M649.258 414.199H656.003V432.476H658.836V414.199H665.582V411.547H649.258V414.199Z" fill="white"/>
<path d="M698.093 411.532H695.26V432.461H698.093V411.532Z" fill="white"/>
<path d="M745.459 428.745H745.399L733.857 411.547H730.14V432.476H732.973V415.262H733.033L744.694 432.476H748.292V411.547H745.459V428.745Z" fill="white"/>
<path d="M790.681 423.427H795.328V429.255C794.612 429.645 793.838 429.919 793.035 430.064C792.093 430.26 791.133 430.356 790.172 430.348C789.066 430.358 787.97 430.144 786.949 429.719C785.986 429.305 785.115 428.704 784.386 427.951C783.648 427.191 783.063 426.296 782.662 425.315C782.241 424.267 782.033 423.147 782.048 422.019C782.038 420.911 782.225 419.81 782.602 418.768C782.96 417.793 783.505 416.898 784.206 416.131C784.938 415.344 785.827 414.719 786.816 414.295C787.805 413.872 788.871 413.661 789.947 413.674C790.966 413.675 791.979 413.842 792.945 414.169C793.973 414.538 794.908 415.126 795.688 415.892L797.711 413.734C796.833 412.862 795.781 412.183 794.624 411.742C793.109 411.208 791.508 410.959 789.902 411.008C788.39 410.99 786.891 411.28 785.495 411.862C784.195 412.384 783.02 413.175 782.048 414.184C781.073 415.186 780.308 416.373 779.799 417.674C779.239 419.053 778.959 420.53 778.975 422.019C778.969 423.457 779.228 424.884 779.739 426.229C780.223 427.533 780.968 428.726 781.928 429.734C782.925 430.765 784.124 431.581 785.45 432.131C786.954 432.741 788.564 433.041 790.187 433.015C790.863 433.01 791.538 432.97 792.21 432.895C792.932 432.817 793.648 432.691 794.354 432.521C795.04 432.362 795.715 432.161 796.377 431.921C796.985 431.705 797.568 431.424 798.116 431.082V420.775H790.621L790.681 423.427Z" fill="white"/>
<path d="M497.748 204.269C497.748 204.269 506.621 232.029 506.621 236.463V240.957H537.169V236.463C537.169 231.969 546.058 204.269 546.058 204.269C546.058 204.269 544.559 203.43 538.278 194.83C529.285 182.426 524.938 161.153 523.394 152.029H522.735L523.874 189.018C524.953 189.386 525.895 190.075 526.573 190.993C527.25 191.91 527.632 193.012 527.666 194.152C527.7 195.292 527.385 196.415 526.764 197.372C526.143 198.328 525.244 199.072 524.188 199.505L524.413 206.755L519.377 206.561L519.602 199.505C518.553 199.066 517.661 198.32 517.045 197.364C516.429 196.409 516.118 195.289 516.152 194.153C516.186 193.017 516.564 191.918 517.236 191.001C517.908 190.084 518.843 189.393 519.917 189.018L521.071 152.029H520.396C518.897 161.153 514.505 182.426 505.512 194.83C499.246 203.385 497.748 204.269 497.748 204.269Z" fill="white"/>
<path d="M489.728 204.149C477.677 201.312 465.131 201.312 453.08 204.149C465.136 206.945 477.672 206.945 489.728 204.149Z" fill="white"/>
<path d="M473.495 158.651C478.652 162.044 484.23 164.748 490.088 166.696C485.84 162.222 481.028 158.319 475.773 155.086C470.611 151.7 465.034 148.991 459.18 147.026C463.429 151.503 468.241 155.411 473.495 158.651Z" fill="white"/>
<path d="M462.403 178.291C465.732 180.692 469.493 182.426 473.48 183.4C477.427 184.53 481.558 184.871 485.636 184.404C482.311 182 478.549 180.27 474.559 179.31C470.609 178.198 466.483 177.852 462.403 178.291Z" fill="white"/>
<path d="M502.049 150.202C498.563 142.723 492.55 136.712 485.067 133.228C486.732 136.972 489.103 140.359 492.052 143.206C494.897 146.165 498.293 148.542 502.049 150.202Z" fill="white"/>
<path d="M558.019 133.228C554.271 134.889 550.881 137.259 548.036 140.209C545.075 143.054 542.697 146.448 541.036 150.202C544.79 148.545 548.182 146.168 551.019 143.206C553.977 140.364 556.354 136.976 558.019 133.228Z" fill="white"/>
<path d="M581.267 178.291C577.187 177.852 573.061 178.198 569.111 179.31C565.122 180.27 561.359 182 558.034 184.404C562.113 184.871 566.244 184.53 570.19 183.4C574.177 182.426 577.939 180.692 581.267 178.291Z" fill="white"/>
<path d="M553.477 166.696C559.341 164.751 564.925 162.047 570.085 158.651C575.337 155.407 580.148 151.5 584.4 147.026C572.721 151.128 562.141 157.858 553.477 166.696Z" fill="white"/>
<path d="M523.904 126.322C523.966 120.147 523.235 113.989 521.73 108C520.238 113.991 519.528 120.149 519.617 126.322C519.519 132.495 520.23 138.655 521.73 144.644C523.251 138.657 523.981 132.498 523.904 126.322Z" fill="white"/>
<path d="M572.469 206.246C578.644 206.341 584.806 205.636 590.8 204.149C578.749 201.312 566.203 201.312 554.152 204.149C560.141 205.636 566.298 206.341 572.469 206.246Z" fill="white"/>
</g>
<defs>
<clipPath id="clip0_5_197">
<rect width="603" height="325" fill="white" transform="translate(238 108)"/>
</clipPath>
</defs>
</svg>
